STARTFONT 2.1
FONT -Adobe-New Century Schoolbook-Medium-R-Normal--14-100-100-100-P-82-ISO10646-1
SIZE 10 100 100
FONTBOUNDINGBOX 18 24 -2 -6
COMMENT $XFree86$
COMMENT ISO10646-1 extension by Markus Kuhn <mkuhn@acm.org>, 2001-03-20
COMMENT 
COMMENT +
COMMENT  Copyright 1984-1989, 1994 Adobe Systems Incorporated.
COMMENT  Copyright 1988, 1994 Digital Equipment Corporation.
COMMENT
COMMENT  Adobe is a trademark of Adobe Systems Incorporated which may be
COMMENT  registered in certain jurisdictions.
COMMENT  Permission to use these trademarks is hereby granted only in
COMMENT  association with the images described in this file.
COMMENT
COMMENT  Permission to use, copy, modify, distribute and sell this software
COMMENT  and its documentation for any purpose and without fee is hereby
COMMENT  granted, provided that the above copyright notices appear in all
COMMENT  copies and that both those copyright notices and this permission
COMMENT  notice appear in supporting documentation, and that the names of
COMMENT  Adobe Systems and Digital Equipment Corporation not be used in
COMMENT  advertising or publicity pertaining to distribution of the software
COMMENT  without specific, written prior permission.  Adobe Systems and
COMMENT  Digital Equipment Corporation make no representations about the
COMMENT  suitability of this software for any purpose.  It is provided "as
COMMENT  is" without express or implied warranty.
COMMENT -
STARTPROPERTIES 26
FOUNDRY "Adobe"
FAMILY_NAME "New Century Schoolbook"
WEIGHT_NAME "Medium"
SLANT "R"
SETWIDTH_NAME "Normal"
ADD_STYLE_NAME ""
PIXEL_SIZE 14
POINT_SIZE 100
RESOLUTION_X 100
RESOLUTION_Y 100
SPACING "P"
AVERAGE_WIDTH 82
CHARSET_REGISTRY "ISO10646"
CHARSET_ENCODING "1"
CAP_HEIGHT 11
X_HEIGHT 7
FONT_ASCENT 13
FONT_DESCENT 3
FACE_NAME "New Century Schoolbook Roman"
COPYRIGHT "Copyright (c) 1984, 1987 Adobe Systems Incorporated. All Rights Reserved. Copyright (c) 1988, 1991 Digital Equipment Corporation. All Rights Reserved."

STARTCHAR char0
ENCODING 0
SWIDTH 833 0
DWIDTH 12 0
BBX 11 11 0 0
BITMAP
AAA0
0000
8020
0000
8020
0000
8020
0000
8020
0000
AAA0
ENDCHAR
STARTCHAR space
ENCODING 32
SWIDTH 278 0
DWIDTH 4 0
BBX 1 1 0 0
BITMAP
00
ENDCHAR
STARTCHAR exclam
ENCODING 33
SWIDTH 296 0
DWIDTH 3 0
BBX 1 11 1 0
BITMAP
80
80
80
80
80
80
80
80
00
80
80
ENDCHAR
STARTCHAR quotedbl
ENCODING 34
SWIDTH 389 0
DWIDTH 5 0
BBX 3 4 1 7
BITMAP
A0
A0
A0
A0
ENDCHAR
STARTCHAR numbersign
ENCODING 35
SWIDTH 556 0
DWIDTH 8 0
BBX 8 11 0 0
BITMAP
12
12
12
7F
24
24
24
FE
48
48
48
ENDCHAR
STARTCHAR dollar
ENCODING 36
SWIDTH 556 0
DWIDTH 8 0
BBX 6 14 1 -2
BITMAP
20
78
A4
AC
A0
E0
78
1C
14
D4
94
78
10
10
ENDCHAR
STARTCHAR percent
ENCODING 37
SWIDTH 833 0
DWIDTH 12 0
BBX 11 11 0 0
BITMAP
3300
4D00
8A00
8A00
9400
64C0
0920
0A20
1220
1240
2180
ENDCHAR
STARTCHAR ampersand
ENCODING 38
SWIDTH 815 0
DWIDTH 13 0
BBX 11 11 1 0
BITMAP
1C00
3200
2200
3400
1800
39E0
4C80
8700
8320
C5C0
78C0
ENDCHAR
STARTCHAR quotesingle
ENCODING 39
SWIDTH 204 0
DWIDTH 3 0
BBX 1 4 1 7
BITMAP
80
80
80
80
ENDCHAR
STARTCHAR parenleft
ENCODING 40
SWIDTH 333 0
DWIDTH 5 0
BBX 4 13 0 -2
BITMAP
10
20
40
40
80
80
80
80
80
40
40
20
10
ENDCHAR
STARTCHAR parenright
ENCODING 41
SWIDTH 333 0
DWIDTH 6 0
BBX 4 13 1 -2
BITMAP
80
40
20
20
10
10
10
10
10
20
20
40
80
ENDCHAR
STARTCHAR asterisk
ENCODING 42
SWIDTH 500 0
DWIDTH 7 0
BBX 5 5 1 6
BITMAP
20
A8
70
A8
20
ENDCHAR
STARTCHAR plus
ENCODING 43
SWIDTH 606 0
DWIDTH 9 0
BBX 7 7 1 0
BITMAP
10
10
10
FE
10
10
10
ENDCHAR
STARTCHAR comma
ENCODING 44
SWIDTH 278 0
DWIDTH 4 0
BBX 2 4 0 -2
BITMAP
C0
40
40
80
ENDCHAR
STARTCHAR hyphen
ENCODING 45
SWIDTH 333 0
DWIDTH 5 0
BBX 4 1 0 3
BITMAP
F0
ENDCHAR
STARTCHAR period
ENCODING 46
SWIDTH 278 0
DWIDTH 4 0
BBX 1 2 1 0
BITMAP
80
80
ENDCHAR
STARTCHAR slash
ENCODING 47
SWIDTH 278 0
DWIDTH 4 0
BBX 4 11 0 0
BITMAP
10
10
10
20
20
20
40
40
40
80
80
ENDCHAR
STARTCHAR zero
ENCODING 48
SWIDTH 556 0
DWIDTH 8 0
BBX 6 11 1 0
BITMAP
78
CC
84
84
84
84
84
84
84
CC
78
ENDCHAR
STARTCHAR one
ENCODING 49
SWIDTH 556 0
DWIDTH 8 0
BBX 5 11 1 0
BITMAP
20
E0
20
20
20
20
20
20
20
20
F8
ENDCHAR
STARTCHAR two
ENCODING 50
SWIDTH 556 0
DWIDTH 8 0
BBX 6 11 1 0
BITMAP
78
8C
C4
04
04
08
10
20
44
84
FC
ENDCHAR
STARTCHAR three
ENCODING 51
SWIDTH 556 0
DWIDTH 8 0
BBX 6 11 1 0
BITMAP
78
8C
C4
04
08
38
0C
04
C4
8C
78
ENDCHAR
STARTCHAR four
ENCODING 52
SWIDTH 556 0
DWIDTH 8 0
BBX 7 11 0 0
BITMAP
0C
1C
14
24
44
44
84
FE
04
04
0E
ENDCHAR
STARTCHAR five
ENCODING 53
SWIDTH 556 0
DWIDTH 8 0
BBX 6 11 1 0
BITMAP
FC
80
80
B8
CC
84
04
04
C4
8C
78
ENDCHAR
STARTCHAR six
ENCODING 54
SWIDTH 556 0
DWIDTH 8 0
BBX 6 11 1 0
BITMAP
38
44
8C
80
B8
CC
84
84
84
CC
78
ENDCHAR
STARTCHAR seven
ENCODING 55
SWIDTH 556 0
DWIDTH 8 0
BBX 6 11 1 0
BITMAP
FC
84
88
08
10
10
10
20
20
20
20
ENDCHAR
STARTCHAR eight
ENCODING 56
SWIDTH 556 0
DWIDTH 8 0
BBX 6 11 1 0
BITMAP
78
CC
84
C4
68
78
8C
84
84
CC
78
ENDCHAR
STARTCHAR nine
ENCODING 57
SWIDTH 556 0
DWIDTH 8 0
BBX 6 11 1 0
BITMAP
78
CC
84
84
84
CC
74
04
C4
88
70
ENDCHAR
STARTCHAR colon
ENCODING 58
SWIDTH 278 0
DWIDTH 4 0
BBX 1 7 1 0
BITMAP
80
80
00
00
00
80
80
ENDCHAR
STARTCHAR semicolon
ENCODING 59
SWIDTH 278 0
DWIDTH 4 0
BBX 2 9 0 -2
BITMAP
40
40
00
00
00
C0
40
40
80
ENDCHAR
STARTCHAR less
ENCODING 60
SWIDTH 606 0
DWIDTH 10 0
BBX 8 7 1 0
BITMAP
03
0C
30
C0
30
0C
03
ENDCHAR
STARTCHAR equal
ENCODING 61
SWIDTH 606 0
DWIDTH 9 0
BBX 7 4 1 2
BITMAP
FE
00
00
FE
ENDCHAR
STARTCHAR greater
ENCODING 62
SWIDTH 606 0
DWIDTH 10 0
BBX 8 7 1 0
BITMAP
C0
30
0C
03
0C
30
C0
ENDCHAR
STARTCHAR question
ENCODING 63
SWIDTH 444 0
DWIDTH 6 0
BBX 5 11 0 0
BITMAP
70
98
88
08
10
20
20
20
00
20
20
ENDCHAR
STARTCHAR at
ENCODING 64
SWIDTH 737 0
DWIDTH 13 0
BBX 12 11 0 0
BITMAP
1FE0
2010
4690
8990
9090
9110
9110
9330
8DC0
4010
3FE0
ENDCHAR
STARTCHAR A
ENCODING 65
SWIDTH 722 0
DWIDTH 10 0
BBX 11 11 -1 0
BITMAP
0400
0400
0A00
0A00
0A00
1100
1100
3F80
2080
2080
FBE0
ENDCHAR
STARTCHAR B
ENCODING 66
SWIDTH 722 0
DWIDTH 10 0
BBX 9 11 0 0
BITMAP
FE00
2300
2100
2100
2200
3F00
2180
2080
2080
2180
FF00
ENDCHAR
STARTCHAR C
ENCODING 67
SWIDTH 722 0
DWIDTH 11 0
BBX 9 11 1 0
BITMAP
1E80
6180
4080
C080
8000
8000
8000
C080
4080
6100
1E00
ENDCHAR
STARTCHAR D
ENCODING 68
SWIDTH 778 0
DWIDTH 11 0
BBX 10 11 0 0
BITMAP
FF00
2080
20C0
2040
2040
2040
2040
2040
20C0
2080
FF00
ENDCHAR
STARTCHAR E
ENCODING 69
SWIDTH 722 0
DWIDTH 10 0
BBX 9 11 0 0
BITMAP
FF80
2080
2080
2400
2400
3C00
2400
2400
2080
2080
FF80
ENDCHAR
STARTCHAR F
ENCODING 70
SWIDTH 667 0
DWIDTH 10 0
BBX 9 11 0 0
BITMAP
FF80
2080
2080
2400
2400
3C00
2400
2400
2000
2000
F800
ENDCHAR
STARTCHAR G
ENCODING 71
SWIDTH 778 0
DWIDTH 11 0
BBX 10 11 0 0
BITMAP
1E80
6180
4080
C080
8000
8000
87C0
C080
4080
6180
1E80
ENDCHAR
STARTCHAR H
ENCODING 72
SWIDTH 833 0
DWIDTH 12 0
BBX 11 11 0 0
BITMAP
FBE0
2080
2080
2080
2080
3F80
2080
2080
2080
2080
FBE0
ENDCHAR
STARTCHAR I
ENCODING 73
SWIDTH 407 0
DWIDTH 6 0
BBX 5 11 0 0
BITMAP
F8
20
20
20
20
20
20
20
20
20
F8
ENDCHAR
STARTCHAR J
ENCODING 74
SWIDTH 556 0
DWIDTH 7 0
BBX 7 11 0 0
BITMAP
3E
08
08
08
08
08
08
C8
88
88
70
ENDCHAR
STARTCHAR K
ENCODING 75
SWIDTH 778 0
DWIDTH 11 0
BBX 11 11 0 0
BITMAP
FBC0
2100
2200
2400
2800
3800
3400
2600
2300
2180
FBE0
ENDCHAR
STARTCHAR L
ENCODING 76
SWIDTH 667 0
DWIDTH 10 0
BBX 9 11 0 0
BITMAP
F800
2000
2000
2000
2000
2000
2000
2000
2080
2080
FF80
ENDCHAR
STARTCHAR M
ENCODING 77
SWIDTH 944 0
DWIDTH 16 0
BBX 15 11 0 0
BITMAP
F01E
3018
2828
2828
2C48
2448
2688
2288
2388
2108
F93E
ENDCHAR
STARTCHAR N
ENCODING 78
SWIDTH 815 0
DWIDTH 13 0
BBX 12 11 0 0
BITMAP
E1F0
3040
3840
2840
2C40
2640
2340
2140
21C0
20C0
F840
ENDCHAR
STARTCHAR O
ENCODING 79
SWIDTH 778 0
DWIDTH 11 0
BBX 10 11 0 0
BITMAP
1E00
6180
4080
C0C0
8040
8040
8040
C0C0
4080
6180
1E00
ENDCHAR
STARTCHAR P
ENCODING 80
SWIDTH 667 0
DWIDTH 10 0
BBX 9 11 0 0
BITMAP
FF00
2180
2080
2080
2100
3E00
2000
2000
2000
2000
F800
ENDCHAR
STARTCHAR Q
ENCODING 81
SWIDTH 778 0
DWIDTH 11 0
BBX 11 13 0 -2
BITMAP
1E00
6180
4080
C0C0
8040
8040
8040
DCC0
6280
6380
1F00
0120
00C0
ENDCHAR
STARTCHAR R
ENCODING 82
SWIDTH 722 0
DWIDTH 11 0
BBX 11 11 0 0
BITMAP
FF00
2180
2080
2080
2100
3E00
2300
2100
2120
21A0
F8C0
ENDCHAR
STARTCHAR S
ENCODING 83
SWIDTH 630 0
DWIDTH 8 0
BBX 7 11 0 0
BITMAP
7A
C6
82
82
E0
38
0E
82
82
C6
BC
ENDCHAR
STARTCHAR T
ENCODING 84
SWIDTH 667 0
DWIDTH 10 0
BBX 9 11 0 0
BITMAP
FF80
8880
8880
0800
0800
0800
0800
0800
0800
0800
3E00
ENDCHAR
STARTCHAR U
ENCODING 85
SWIDTH 815 0
DWIDTH 13 0
BBX 12 11 0 0
BITMAP
F9F0
2040
2040
2040
2040
2040
2040
2040
2040
3080
1F00
ENDCHAR
STARTCHAR V
ENCODING 86
SWIDTH 722 0
DWIDTH 10 0
BBX 11 11 -1 0
BITMAP
FBE0
2080
3080
1100
1100
1900
0A00
0A00
0A00
0400
0400
ENDCHAR
STARTCHAR W
ENCODING 87
SWIDTH 981 0
DWIDTH 16 0
BBX 17 11 -1 0
BITMAP
FBEF80
208300
30C200
11C200
114400
196400
0B2800
0A2800
0E3800
061000
041000
ENDCHAR
STARTCHAR X
ENCODING 88
SWIDTH 704 0
DWIDTH 13 0
BBX 12 11 0 0
BITMAP
FDF0
3040
1880
0D00
0500
0600
0B00
0900
1180
20C0
FBF0
ENDCHAR
STARTCHAR Y
ENCODING 89
SWIDTH 704 0
DWIDTH 10 0
BBX 11 11 -1 0
BITMAP
FBE0
6080
3100
1100
1A00
0A00
0400
0400
0400
0400
1F00
ENDCHAR
STARTCHAR Z
ENCODING 90
SWIDTH 611 0
DWIDTH 9 0
BBX 8 11 0 0
BITMAP
FF
83
86
0C
08
18
30
20
61
C1
FF
ENDCHAR
STARTCHAR bracketleft
ENCODING 91
SWIDTH 333 0
DWIDTH 4 0
BBX 3 13 0 -2
BITMAP
E0
80
80
80
80
80
80
80
80
80
80
80
E0
ENDCHAR
STARTCHAR backslash
ENCODING 92
SWIDTH 606 0
DWIDTH 8 0
BBX 6 11 1 0
BITMAP
80
80
40
40
20
20
10
10
08
08
04
ENDCHAR
STARTCHAR bracketright
ENCODING 93
SWIDTH 333 0
DWIDTH 4 0
BBX 3 13 0 -2
BITMAP
E0
20
20
20
20
20
20
20
20
20
20
20
E0
ENDCHAR
STARTCHAR asciicircum
ENCODING 94
SWIDTH 606 0
DWIDTH 7 0
BBX 5 6 1 5
BITMAP
20
20
50
50
88
88
ENDCHAR
STARTCHAR underscore
ENCODING 95
SWIDTH 500 0
DWIDTH 7 0
BBX 7 1 0 -2
BITMAP
FE
ENDCHAR
STARTCHAR grave
ENCODING 96
SWIDTH 333 0
DWIDTH 5 0
BBX 3 3 1 8
BITMAP
80
40
20
ENDCHAR
STARTCHAR a
ENCODING 97
SWIDTH 556 0
DWIDTH 8 0
BBX 7 7 0 0
BITMAP
38
4C
04
3C
C4
8C
76
ENDCHAR
STARTCHAR b
ENCODING 98
SWIDTH 556 0
DWIDTH 7 0
BBX 7 11 -1 0
BITMAP
C0
40
40
40
5C
66
42
42
42
66
5C
ENDCHAR
STARTCHAR c
ENCODING 99
SWIDTH 444 0
DWIDTH 7 0
BBX 6 7 0 0
BITMAP
78
CC
80
80
80
C4
78
ENDCHAR
STARTCHAR d
ENCODING 100
SWIDTH 574 0
DWIDTH 8 0
BBX 7 11 0 0
BITMAP
0C
04
04
04
74
CC
84
84
84
CC
76
ENDCHAR
STARTCHAR e
ENCODING 101
SWIDTH 500 0
DWIDTH 7 0
BBX 6 7 0 0
BITMAP
78
CC
84
FC
80
C4
78
ENDCHAR
STARTCHAR f
ENCODING 102
SWIDTH 333 0
DWIDTH 5 0
BBX 5 11 0 0
BITMAP
38
48
40
40
F0
40
40
40
40
40
E0
ENDCHAR
STARTCHAR g
ENCODING 103
SWIDTH 537 0
DWIDTH 8 0
BBX 7 10 0 -3
BITMAP
76
CC
84
CC
78
80
7C
C6
82
7C
ENDCHAR
STARTCHAR h
ENCODING 104
SWIDTH 611 0
DWIDTH 9 0
BBX 8 11 0 0
BITMAP
C0
40
40
40
5C
66
42
42
42
42
E7
ENDCHAR
STARTCHAR i
ENCODING 105
SWIDTH 315 0
DWIDTH 4 0
BBX 3 10 0 0
BITMAP
40
40
00
C0
40
40
40
40
40
E0
ENDCHAR
STARTCHAR j
ENCODING 106
SWIDTH 296 0
DWIDTH 4 0
BBX 3 13 -1 -3
BITMAP
20
20
00
60
20
20
20
20
20
20
20
A0
C0
ENDCHAR
STARTCHAR k
ENCODING 107
SWIDTH 593 0
DWIDTH 9 0
BBX 8 11 0 0
BITMAP
C0
40
40
40
5E
48
50
78
4C
46
EF
ENDCHAR
STARTCHAR l
ENCODING 108
SWIDTH 315 0
DWIDTH 4 0
BBX 3 11 0 0
BITMAP
C0
40
40
40
40
40
40
40
40
40
E0
ENDCHAR
STARTCHAR m
ENCODING 109
SWIDTH 889 0
DWIDTH 14 0
BBX 13 7 0 0
BITMAP
DCE0
6730
4210
4210
4210
4210
E738
ENDCHAR
STARTCHAR n
ENCODING 110
SWIDTH 611 0
DWIDTH 9 0
BBX 8 7 0 0
BITMAP
DC
66
42
42
42
42
E7
ENDCHAR
STARTCHAR o
ENCODING 111
SWIDTH 500 0
DWIDTH 7 0
BBX 6 7 0 0
BITMAP
78
CC
84
84
84
CC
78
ENDCHAR
STARTCHAR p
ENCODING 112
SWIDTH 574 0
DWIDTH 8 0
BBX 7 10 0 -3
BITMAP
DC
66
42
42
42
66
5C
40
40
E0
ENDCHAR
STARTCHAR q
ENCODING 113
SWIDTH 556 0
DWIDTH 7 0
BBX 7 10 0 -3
BITMAP
74
CC
84
84
84
CC
74
04
04
0E
ENDCHAR
STARTCHAR r
ENCODING 114
SWIDTH 444 0
DWIDTH 7 0
BBX 6 7 0 0
BITMAP
DC
64
40
40
40
40
E0
ENDCHAR
STARTCHAR s
ENCODING 115
SWIDTH 463 0
DWIDTH 6 0
BBX 5 7 0 0
BITMAP
78
88
C0
70
18
88
F0
ENDCHAR
STARTCHAR t
ENCODING 116
SWIDTH 389 0
DWIDTH 5 0
BBX 5 9 0 0
BITMAP
40
40
F0
40
40
40
40
48
30
ENDCHAR
STARTCHAR u
ENCODING 117
SWIDTH 611 0
DWIDTH 9 0
BBX 8 7 0 0
BITMAP
E7
42
42
42
42
66
3B
ENDCHAR
STARTCHAR v
ENCODING 118
SWIDTH 537 0
DWIDTH 8 0
BBX 7 7 0 0
BITMAP
EE
44
44
28
28
10
10
ENDCHAR
STARTCHAR w
ENCODING 119
SWIDTH 778 0
DWIDTH 12 0
BBX 11 7 0 0
BITMAP
EEE0
4440
4440
2A80
2A80
1100
1100
ENDCHAR
STARTCHAR x
ENCODING 120
SWIDTH 537 0
DWIDTH 8 0
BBX 7 7 0 0
BITMAP
CE
64
38
10
38
4C
E6
ENDCHAR
STARTCHAR y
ENCODING 121
SWIDTH 537 0
DWIDTH 8 0
BBX 7 10 0 -3
BITMAP
EE
44
44
28
28
10
10
20
A0
C0
ENDCHAR
STARTCHAR z
ENCODING 122
SWIDTH 481 0
DWIDTH 7 0
BBX 6 7 0 0
BITMAP
FC
8C
98
30
64
C4
FC
ENDCHAR
STARTCHAR braceleft
ENCODING 123
SWIDTH 333 0
DWIDTH 4 0
BBX 3 13 0 -2
BITMAP
20
40
40
40
40
40
80
40
40
40
40
40
20
ENDCHAR
STARTCHAR bar
ENCODING 124
SWIDTH 606 0
DWIDTH 9 0
BBX 1 11 4 0
BITMAP
80
80
80
80
80
80
80
80
80
80
80
ENDCHAR
STARTCHAR braceright
ENCODING 125
SWIDTH 333 0
DWIDTH 5 0
BBX 3 13 1 -2
BITMAP
80
40
40
40
40
40
20
40
40
40
40
40
80
ENDCHAR
STARTCHAR asciitilde
ENCODING 126
SWIDTH 606 0
DWIDTH 9 0
BBX 7 2 1 3
BITMAP
72
8C
ENDCHAR
STARTCHAR space
ENCODING 160
SWIDTH 278 0
DWIDTH 4 0
BBX 1 1 0 0
BITMAP
00
ENDCHAR
STARTCHAR exclamdown
ENCODING 161
SWIDTH 296 0
DWIDTH 4 0
BBX 1 11 1 -3
BITMAP
80
80
00
80
80
80
80
80
80
80
80
ENDCHAR
STARTCHAR cent
ENCODING 162
SWIDTH 556 0
DWIDTH 8 0
BBX 6 11 1 -2
BITMAP
04
04
78
CC
90
90
A0
E4
78
80
80
ENDCHAR
STARTCHAR sterling
ENCODING 163
SWIDTH 556 0
DWIDTH 8 0
BBX 7 11 0 0
BITMAP
3C
62
46
40
20
FC
10
10
60
B2
CE
ENDCHAR
STARTCHAR currency
ENCODING 164
SWIDTH 606 0
DWIDTH 8 0
BBX 7 7 0 2
BITMAP
BA
44
82
82
82
44
BA
ENDCHAR
STARTCHAR yen
ENCODING 165
SWIDTH 704 0
DWIDTH 8 0
BBX 9 11 0 0
BITMAP
E380
4100
2200
2200
1400
1400
3E00
0800
3E00
0800
1C00
ENDCHAR
STARTCHAR brokenbar
ENCODING 166
SWIDTH 606 0
DWIDTH 9 0
BBX 1 11 4 0
BITMAP
80
80
80
80
00
00
80
80
80
80
80
ENDCHAR
STARTCHAR section
ENCODING 167
SWIDTH 500 0
DWIDTH 7 0
BBX 5 13 1 -2
BITMAP
78
88
80
C0
70
98
88
C8
70
18
08
88
F0
ENDCHAR
STARTCHAR dieresis
ENCODING 168
SWIDTH 333 0
DWIDTH 6 0
BBX 4 2 1 8
BITMAP
90
90
ENDCHAR
STARTCHAR copyright
ENCODING 169
SWIDTH 737 0
DWIDTH 14 0
BBX 12 11 1 0
BITMAP
0F00
30C0
4F20
5920
9010
9010
9890
4F20
4020
30C0
0F00
ENDCHAR
STARTCHAR ordfeminine
ENCODING 170
SWIDTH 334 0
DWIDTH 6 0
BBX 5 7 0 4
BITMAP
60
90
70
90
F8
00
F8
ENDCHAR
STARTCHAR guillemotleft
ENCODING 171
SWIDTH 426 0
DWIDTH 7 0
BBX 6 5 0 1
BITMAP
24
48
90
48
24
ENDCHAR
STARTCHAR logicalnot
ENCODING 172
SWIDTH 606 0
DWIDTH 9 0
BBX 7 4 0 1
BITMAP
FE
02
02
02
ENDCHAR
STARTCHAR hyphen
ENCODING 173
SWIDTH 333 0
DWIDTH 5 0
BBX 4 1 0 3
BITMAP
F0
ENDCHAR
STARTCHAR registered
ENCODING 174
SWIDTH 737 0
DWIDTH 14 0
BBX 12 11 1 0
BITMAP
0F00
30C0
5E20
4920
8910
8E10
8B10
59A0
4020
30C0
0F00
ENDCHAR
STARTCHAR macron
ENCODING 175
SWIDTH 333 0
DWIDTH 5 0
BBX 5 1 0 8
BITMAP
F8
ENDCHAR
STARTCHAR degree
ENCODING 176
SWIDTH 400 0
DWIDTH 6 0
BBX 4 4 1 7
BITMAP
60
90
90
60
ENDCHAR
STARTCHAR plusminus
ENCODING 177
SWIDTH 606 0
DWIDTH 9 0
BBX 7 7 1 0
BITMAP
10
10
FE
10
10
00
FE
ENDCHAR
STARTCHAR twosuperior
ENCODING 178
SWIDTH 333 0
DWIDTH 5 0
BBX 4 6 0 5
BITMAP
60
90
20
40
90
F0
ENDCHAR
STARTCHAR threesuperior
ENCODING 179
SWIDTH 333 0
DWIDTH 5 0
BBX 4 6 0 5
BITMAP
60
90
20
10
90
60
ENDCHAR
STARTCHAR acute
ENCODING 180
SWIDTH 333 0
DWIDTH 5 0
BBX 3 3 1 8
BITMAP
20
40
80
ENDCHAR
STARTCHAR mu
ENCODING 181
SWIDTH 611 0
DWIDTH 9 0
BBX 8 10 0 -3
BITMAP
E7
42
42
42
42
66
7B
40
60
40
ENDCHAR
STARTCHAR paragraph
ENCODING 182
SWIDTH 606 0
DWIDTH 9 0
BBX 7 13 1 -2
BITMAP
7E
D4
D4
D4
D4
74
14
14
14
14
14
14
3E
ENDCHAR
STARTCHAR periodcentered
ENCODING 183
SWIDTH 278 0
DWIDTH 4 0
BBX 2 2 1 3
BITMAP
C0
C0
ENDCHAR
STARTCHAR cedilla
ENCODING 184
SWIDTH 333 0
DWIDTH 5 0
BBX 3 4 0 -3
BITMAP
40
40
20
C0
ENDCHAR
STARTCHAR onesuperior
ENCODING 185
SWIDTH 333 0
DWIDTH 5 0
BBX 3 6 1 5
BITMAP
40
C0
40
40
40
E0
ENDCHAR
STARTCHAR ordmasculine
ENCODING 186
SWIDTH 300 0
DWIDTH 5 0
BBX 4 7 0 4
BITMAP
60
90
90
90
60
00
F0
ENDCHAR
STARTCHAR guillemotright
ENCODING 187
SWIDTH 426 0
DWIDTH 7 0
BBX 6 5 0 1
BITMAP
90
48
24
48
90
ENDCHAR
STARTCHAR onequarter
ENCODING 188
SWIDTH 834 0
DWIDTH 12 0
BBX 10 11 0 0
BITMAP
4100
C100
4200
4200
4400
E480
0980
1280
1480
27C0
2080
ENDCHAR
STARTCHAR onehalf
ENCODING 189
SWIDTH 834 0
DWIDTH 12 0
BBX 10 11 0 0
BITMAP
4100
C100
4200
4200
4400
E580
0A40
1080
1100
2240
23C0
ENDCHAR
STARTCHAR threequarters
ENCODING 190
SWIDTH 834 0
DWIDTH 12 0
BBX 10 11 0 0
BITMAP
6100
9100
2200
1200
9400
6480
0980
1280
1480
27C0
2080
ENDCHAR
STARTCHAR questiondown
ENCODING 191
SWIDTH 444 0
DWIDTH 6 0
BBX 5 11 0 -3
BITMAP
20
20
00
20
20
20
40
80
88
C8
70
ENDCHAR
STARTCHAR Agrave
ENCODING 192
SWIDTH 722 0
DWIDTH 10 0
BBX 11 14 -1 0
BITMAP
0800
0400
0000
0400
0400
0A00
0A00
0A00
1100
1100
3F80
2080
2080
FBE0
ENDCHAR
STARTCHAR Aacute
ENCODING 193
SWIDTH 722 0
DWIDTH 10 0
BBX 11 14 -1 0
BITMAP
0200
0400
0000
0400
0400
0A00
0A00
0A00
1100
1100
3F80
2080
2080
FBE0
ENDCHAR
STARTCHAR Acircumflex
ENCODING 194
SWIDTH 722 0
DWIDTH 10 0
BBX 11 14 -1 0
BITMAP
0400
0A00
1100
0400
0400
0A00
0A00
0A00
1100
1100
3F80
2080
2080
FBE0
ENDCHAR
STARTCHAR Atilde
ENCODING 195
SWIDTH 722 0
DWIDTH 10 0
BBX 11 14 -1 0
BITMAP
0C80
1300
0000
0400
0400
0A00
0A00
0A00
1100
1100
3F80
2080
2080
FBE0
ENDCHAR
STARTCHAR Adieresis
ENCODING 196
SWIDTH 722 0
DWIDTH 10 0
BBX 11 13 -1 0
BITMAP
1100
1100
0400
0400
0A00
0A00
0A00
1100
1100
3F80
2080
2080
FBE0
ENDCHAR
STARTCHAR Aring
ENCODING 197
SWIDTH 722 0
DWIDTH 10 0
BBX 11 14 -1 0
BITMAP
0C00
1200
0C00
0400
0400
0A00
0A00
0A00
1100
1100
3F80
2080
2080
FBE0
ENDCHAR
STARTCHAR AE
ENCODING 198
SWIDTH 1000 0
DWIDTH 15 0
BBX 14 11 0 0
BITMAP
0FFC
0504
0904
0920
1120
11E0
3F20
2120
4104
4104
E3FC
ENDCHAR
STARTCHAR Ccedilla
ENCODING 199
SWIDTH 722 0
DWIDTH 11 0
BBX 9 14 1 -3
BITMAP
1E80
6180
4080
C080
8000
8000
8000
C080
4080
6100
1E00
0800
0400
1800
ENDCHAR
STARTCHAR Egrave
ENCODING 200
SWIDTH 722 0
DWIDTH 10 0
BBX 9 14 0 0
BITMAP
1000
0800
0000
FF80
2080
2080
2400
2400
3C00
2400
2400
2080
2080
FF80
ENDCHAR
STARTCHAR Eacute
ENCODING 201
SWIDTH 722 0
DWIDTH 10 0
BBX 9 14 0 0
BITMAP
0400
0800
0000
FF80
2080
2080
2400
2400
3C00
2400
2400
2080
2080
FF80
ENDCHAR
STARTCHAR Ecircumflex
ENCODING 202
SWIDTH 722 0
DWIDTH 10 0
BBX 9 14 0 0
BITMAP
0C00
1200
0000
FF80
2080
2080
2400
2400
3C00
2400
2400
2080
2080
FF80
ENDCHAR
STARTCHAR Edieresis
ENCODING 203
SWIDTH 722 0
DWIDTH 10 0
BBX 9 14 0 0
BITMAP
1200
1200
0000
FF80
2080
2080
2400
2400
3C00
2400
2400
2080
2080
FF80
ENDCHAR
STARTCHAR Igrave
ENCODING 204
SWIDTH 407 0
DWIDTH 6 0
BBX 5 14 0 0
BITMAP
40
20
00
F8
20
20
20
20
20
20
20
20
20
F8
ENDCHAR
STARTCHAR Iacute
ENCODING 205
SWIDTH 407 0
DWIDTH 6 0
BBX 5 14 0 0
BITMAP
10
20
00
F8
20
20
20
20
20
20
20
20
20
F8
ENDCHAR
STARTCHAR Icircumflex
ENCODING 206
SWIDTH 407 0
DWIDTH 6 0
BBX 5 14 0 0
BITMAP
30
48
00
F8
20
20
20
20
20
20
20
20
20
F8
ENDCHAR
STARTCHAR Idieresis
ENCODING 207
SWIDTH 407 0
DWIDTH 6 0
BBX 5 14 0 0
BITMAP
50
50
00
F8
20
20
20
20
20
20
20
20
20
F8
ENDCHAR
STARTCHAR Eth
ENCODING 208
SWIDTH 778 0
DWIDTH 11 0
BBX 10 11 0 0
BITMAP
FF00
2080
20C0
2040
2040
F840
2040
2040
20C0
2080
FF00
ENDCHAR
STARTCHAR Ntilde
ENCODING 209
SWIDTH 815 0
DWIDTH 13 0
BBX 12 14 0 0
BITMAP
0C80
1300
0000
E1F0
3040
3040
2840
2C40
2640
2340
2140
20C0
2040
F840
ENDCHAR
STARTCHAR Ograve
ENCODING 210
SWIDTH 778 0
DWIDTH 11 0
BBX 10 14 0 0
BITMAP
0800
0400
0000
1E00
6180
4080
C0C0
8040
8040
8040
C0C0
4080
6180
1E00
ENDCHAR
STARTCHAR Oacute
ENCODING 211
SWIDTH 778 0
DWIDTH 11 0
BBX 10 14 0 0
BITMAP
0200
0400
0000
1E00
6180
4080
C0C0
8040
8040
8040
C0C0
4080
6180
1E00
ENDCHAR
STARTCHAR Ocircumflex
ENCODING 212
SWIDTH 778 0
DWIDTH 11 0
BBX 10 14 0 0
BITMAP
0C00
1200
0000
1E00
6180
4080
C0C0
8040
8040
8040
C0C0
4080
6180
1E00
ENDCHAR
STARTCHAR Otilde
ENCODING 213
SWIDTH 778 0
DWIDTH 11 0
BBX 10 14 0 0
BITMAP
1900
2600
0000
1E00
6180
4080
C0C0
8040
8040
8040
C0C0
4080
6180
1E00
ENDCHAR
STARTCHAR Odieresis
ENCODING 214
SWIDTH 778 0
DWIDTH 11 0
BBX 10 14 0 0
BITMAP
1200
1200
0000
1E00
6180
4080
C0C0
8040
8040
8040
C0C0
4080
6180
1E00
ENDCHAR
STARTCHAR multiply
ENCODING 215
SWIDTH 606 0
DWIDTH 9 0
BBX 7 7 1 0
BITMAP
82
44
28
10
28
44
82
ENDCHAR
STARTCHAR Oslash
ENCODING 216
SWIDTH 778 0
DWIDTH 11 0
BBX 11 11 -1 0
BITMAP
0F20
30C0
20C0
6160
4220
4420
4820
7060
2040
70C0
8F00
ENDCHAR
STARTCHAR Ugrave
ENCODING 217
SWIDTH 815 0
DWIDTH 13 0
BBX 12 14 0 0
BITMAP
0800
0400
0000
F9F0
2040
2040
2040
2040
2040
2040
2040
2040
3080
1F00
ENDCHAR
STARTCHAR Uacute
ENCODING 218
SWIDTH 815 0
DWIDTH 13 0
BBX 12 14 0 0
BITMAP
0100
0200
0000
F9F0
2040
2040
2040
2040
2040
2040
2040
2040
3080
1F00
ENDCHAR
STARTCHAR Ucircumflex
ENCODING 219
SWIDTH 815 0
DWIDTH 13 0
BBX 12 14 0 0
BITMAP
0600
0900
0000
F9F0
2040
2040
2040
2040
2040
2040
2040
2040
3080
1F00
ENDCHAR
STARTCHAR Udieresis
ENCODING 220
SWIDTH 815 0
DWIDTH 13 0
BBX 12 14 0 0
BITMAP
0900
0900
0000
F9F0
2040
2040
2040
2040
2040
2040
2040
2040
3080
1F00
ENDCHAR
STARTCHAR Yacute
ENCODING 221
SWIDTH 704 0
DWIDTH 10 0
BBX 11 14 -1 0
BITMAP
0200
0400
0000
FBE0
6080
3100
1100
1A00
0A00
0400
0400
0400
0400
1F00
ENDCHAR
STARTCHAR Thorn
ENCODING 222
SWIDTH 667 0
DWIDTH 10 0
BBX 9 11 0 0
BITMAP
F800
2000
3F00
2180
2080
2080
2100
3E00
2000
2000
F800
ENDCHAR
STARTCHAR germandbls
ENCODING 223
SWIDTH 574 0
DWIDTH 8 0
BBX 7 11 0 0
BITMAP
38
64
44
4C
58
44
42
42
42
56
DC
ENDCHAR
STARTCHAR agrave
ENCODING 224
SWIDTH 556 0
DWIDTH 8 0
BBX 7 11 0 0
BITMAP
20
10
08
00
38
4C
04
3C
C4
8C
76
ENDCHAR
STARTCHAR aacute
ENCODING 225
SWIDTH 556 0
DWIDTH 8 0
BBX 7 11 0 0
BITMAP
08
10
20
00
38
4C
04
3C
C4
8C
76
ENDCHAR
STARTCHAR acircumflex
ENCODING 226
SWIDTH 556 0
DWIDTH 8 0
BBX 7 11 0 0
BITMAP
10
28
44
00
38
4C
04
3C
C4
8C
76
ENDCHAR
STARTCHAR atilde
ENCODING 227
SWIDTH 556 0
DWIDTH 8 0
BBX 7 10 0 0
BITMAP
32
4C
00
38
4C
04
3C
C4
8C
76
ENDCHAR
STARTCHAR adieresis
ENCODING 228
SWIDTH 556 0
DWIDTH 8 0
BBX 7 10 0 0
BITMAP
48
48
00
38
4C
04
3C
C4
8C
76
ENDCHAR
STARTCHAR aring
ENCODING 229
SWIDTH 556 0
DWIDTH 8 0
BBX 7 11 0 0
BITMAP
30
48
30
00
38
4C
04
3C
C4
8C
76
ENDCHAR
STARTCHAR ae
ENCODING 230
SWIDTH 796 0
DWIDTH 12 0
BBX 11 7 0 0
BITMAP
3BC0
4E60
0420
3FE0
C400
8E20
73C0
ENDCHAR
STARTCHAR ccedilla
ENCODING 231
SWIDTH 444 0
DWIDTH 7 0
BBX 6 10 0 -3
BITMAP
78
CC
80
80
80
C4
78
20
10
60
ENDCHAR
STARTCHAR egrave
ENCODING 232
SWIDTH 500 0
DWIDTH 7 0
BBX 6 11 0 0
BITMAP
40
20
10
00
78
CC
84
FC
80
C4
78
ENDCHAR
STARTCHAR eacute
ENCODING 233
SWIDTH 500 0
DWIDTH 7 0
BBX 6 11 0 0
BITMAP
08
10
20
00
78
CC
84
FC
80
C4
78
ENDCHAR
STARTCHAR ecircumflex
ENCODING 234
SWIDTH 500 0
DWIDTH 7 0
BBX 6 11 0 0
BITMAP
10
28
44
00
78
CC
84
FC
80
C4
78
ENDCHAR
STARTCHAR edieresis
ENCODING 235
SWIDTH 500 0
DWIDTH 7 0
BBX 6 10 0 0
BITMAP
48
48
00
78
CC
84
FC
80
C4
78
ENDCHAR
STARTCHAR igrave
ENCODING 236
SWIDTH 315 0
DWIDTH 4 0
BBX 3 11 0 0
BITMAP
80
40
20
00
C0
40
40
40
40
40
E0
ENDCHAR
STARTCHAR iacute
ENCODING 237
SWIDTH 315 0
DWIDTH 4 0
BBX 3 11 0 0
BITMAP
20
40
80
00
C0
40
40
40
40
40
E0
ENDCHAR
STARTCHAR icircumflex
ENCODING 238
SWIDTH 315 0
DWIDTH 4 0
BBX 5 11 -1 0
BITMAP
20
50
88
00
60
20
20
20
20
20
70
ENDCHAR
STARTCHAR idieresis
ENCODING 239
SWIDTH 315 0
DWIDTH 4 0
BBX 4 10 -1 0
BITMAP
90
90
00
60
20
20
20
20
20
70
ENDCHAR
STARTCHAR eth
ENCODING 240
SWIDTH 500 0
DWIDTH 7 0
BBX 7 11 -1 0
BITMAP
4C
30
D0
08
3C
66
42
42
42
66
3C
ENDCHAR
STARTCHAR ntilde
ENCODING 241
SWIDTH 611 0
DWIDTH 9 0
BBX 8 10 0 0
BITMAP
32
4C
00
DC
66
42
42
42
42
E7
ENDCHAR
STARTCHAR ograve
ENCODING 242
SWIDTH 500 0
DWIDTH 7 0
BBX 6 11 0 0
BITMAP
40
20
10
00
78
CC
84
84
84
CC
78
ENDCHAR
STARTCHAR oacute
ENCODING 243
SWIDTH 500 0
DWIDTH 7 0
BBX 6 11 0 0
BITMAP
10
20
40
00
78
CC
84
84
84
CC
78
ENDCHAR
STARTCHAR ocircumflex
ENCODING 244
SWIDTH 500 0
DWIDTH 7 0
BBX 6 11 0 0
BITMAP
20
50
88
00
78
CC
84
84
84
CC
78
ENDCHAR
STARTCHAR otilde
ENCODING 245
SWIDTH 500 0
DWIDTH 7 0
BBX 6 10 0 0
BITMAP
64
98
00
78
CC
84
84
84
CC
78
ENDCHAR
STARTCHAR odieresis
ENCODING 246
SWIDTH 500 0
DWIDTH 7 0
BBX 6 10 0 0
BITMAP
48
48
00
78
CC
84
84
84
CC
78
ENDCHAR
STARTCHAR divide
ENCODING 247
SWIDTH 606 0
DWIDTH 9 0
BBX 7 7 1 0
BITMAP
10
10
00
FE
00
10
10
ENDCHAR
STARTCHAR oslash
ENCODING 248
SWIDTH 500 0
DWIDTH 7 0
BBX 6 9 0 -1
BITMAP
08
78
DC
94
A4
A4
CC
78
40
ENDCHAR
STARTCHAR ugrave
ENCODING 249
SWIDTH 611 0
DWIDTH 9 0
BBX 8 11 0 0
BITMAP
20
10
08
00
E7
42
42
42
42
66
3B
ENDCHAR
STARTCHAR uacute
ENCODING 250
SWIDTH 611 0
DWIDTH 9 0
BBX 8 11 0 0
BITMAP
02
04
08
00
E7
42
42
42
42
66
3B
ENDCHAR
STARTCHAR ucircumflex
ENCODING 251
SWIDTH 611 0
DWIDTH 9 0
BBX 8 11 0 0
BITMAP
08
14
22
00
E7
42
42
42
42
66
3B
ENDCHAR
STARTCHAR udieresis
ENCODING 252
SWIDTH 611 0
DWIDTH 9 0
BBX 8 10 0 0
BITMAP
24
24
00
E7
42
42
42
42
66
3B
ENDCHAR
STARTCHAR yacute
ENCODING 253
SWIDTH 537 0
DWIDTH 8 0
BBX 7 14 0 -3
BITMAP
04
08
10
00
EE
44
44
28
28
10
10
20
A0
C0
ENDCHAR
STARTCHAR thorn
ENCODING 254
SWIDTH 574 0
DWIDTH 8 0
BBX 7 14 0 -3
BITMAP
C0
40
40
40
5C
66
42
42
42
66
5C
40
40
E0
ENDCHAR
STARTCHAR ydieresis
ENCODING 255
SWIDTH 537 0
DWIDTH 8 0
BBX 7 13 0 -3
BITMAP
48
48
00
EE
44
44
28
28
10
10
20
A0
C0
ENDCHAR
STARTCHAR Amacron
ENCODING 256
SWIDTH 722 0
DWIDTH 10 0
BBX 11 13 -1 0
BITMAP
1F00
0000
0400
0400
0A00
0A00
0A00
1100
1100
3F80
2080
2080
FBE0
ENDCHAR
STARTCHAR amacron
ENCODING 257
SWIDTH 556 0
DWIDTH 8 0
BBX 7 9 0 0
BITMAP
7C
00
38
4C
04
3C
C4
8C
76
ENDCHAR
STARTCHAR Abreve
ENCODING 258
SWIDTH 722 0
DWIDTH 10 0
BBX 11 14 -1 0
BITMAP
0900
0600
0000
0400
0400
0A00
0A00
0A00
1100
1100
3F80
2080
2080
FBE0
ENDCHAR
STARTCHAR abreve
ENCODING 259
SWIDTH 556 0
DWIDTH 8 0
BBX 7 10 0 0
BITMAP
24
18
00
38
4C
04
3C
C4
8C
76
ENDCHAR
STARTCHAR Aogonek
ENCODING 260
SWIDTH 722 0
DWIDTH 10 0
BBX 11 14 -1 -3
BITMAP
0400
0400
0A00
0A00
0A00
1100
1100
3F80
2080
2080
FBE0
0400
0800
0E00
ENDCHAR
STARTCHAR aogonek
ENCODING 261
SWIDTH 556 0
DWIDTH 8 0
BBX 7 10 0 -3
BITMAP
38
4C
04
3C
C4
8C
76
10
20
38
ENDCHAR
STARTCHAR Cacute
ENCODING 262
SWIDTH 722 0
DWIDTH 11 0
BBX 9 15 1 0
BITMAP
0200
0400
0800
0000
1E80
6180
4080
C080
8000
8000
8000
C080
4080
6100
1E00
ENDCHAR
STARTCHAR cacute
ENCODING 263
SWIDTH 444 0
DWIDTH 7 0
BBX 6 11 0 0
BITMAP
08
10
20
00
78
CC
80
80
80
C4
78
ENDCHAR
STARTCHAR Ccircumflex
ENCODING 264
SWIDTH 722 0
DWIDTH 11 0
BBX 9 15 1 0
BITMAP
0400
0A00
1100
0000
1E80
6180
4080
C080
8000
8000
8000
C080
4080
6100
1E00
ENDCHAR
STARTCHAR ccircumflex
ENCODING 265
SWIDTH 444 0
DWIDTH 7 0
BBX 6 11 0 0
BITMAP
10
28
44
00
78
CC
80
80
80
C4
78
ENDCHAR
STARTCHAR Cdotaccent
ENCODING 266
SWIDTH 722 0
DWIDTH 11 0
BBX 9 14 1 0
BITMAP
0400
0400
0000
1E80
6180
4080
C080
8000
8000
8000
C080
4080
6100
1E00
ENDCHAR
STARTCHAR cdotaccent
ENCODING 267
SWIDTH 444 0
DWIDTH 7 0
BBX 6 10 0 0
BITMAP
10
10
00
78
CC
80
80
80
C4
78
ENDCHAR
STARTCHAR Ccaron
ENCODING 268
SWIDTH 722 0
DWIDTH 11 0
BBX 9 15 1 0
BITMAP
1100
0A00
0400
0000
1E80
6180
4080
C080
8000
8000
8000
C080
4080
6100
1E00
ENDCHAR
STARTCHAR ccaron
ENCODING 269
SWIDTH 444 0
DWIDTH 7 0
BBX 6 11 0 0
BITMAP
44
28
10
00
78
CC
80
80
80
C4
78
ENDCHAR
STARTCHAR Dcaron
ENCODING 270
SWIDTH 778 0
DWIDTH 11 0
BBX 10 15 0 0
BITMAP
2200
1400
0800
0000
FF00
2080
20C0
2040
2040
2040
2040
2040
20C0
2080
FF00
ENDCHAR
STARTCHAR dcaron
ENCODING 271
SWIDTH 749 0
DWIDTH 12 0
BBX 11 11 0 0
BITMAP
0C60
0420
0420
0440
7400
CC00
8400
8400
8400
CC00
7600
ENDCHAR
STARTCHAR Dcroat
ENCODING 272
SWIDTH 778 0
DWIDTH 11 0
BBX 10 11 0 0
BITMAP
FF00
2080
20C0
2040
2040
F840
2040
2040
20C0
2080
FF00
ENDCHAR
STARTCHAR dcroat
ENCODING 273
SWIDTH 574 0
DWIDTH 8 0
BBX 8 11 0 0
BITMAP
0C
04
1F
04
74
CC
84
84
84
CC
76
ENDCHAR
STARTCHAR Emacron
ENCODING 274
SWIDTH 722 0
DWIDTH 10 0
BBX 9 13 0 0
BITMAP
3E00
0000
FF80
2080
2080
2400
2400
3C00
2400
2400
2080
2080
FF80
ENDCHAR
STARTCHAR emacron
ENCODING 275
SWIDTH 500 0
DWIDTH 7 0
BBX 6 9 0 0
BITMAP
7C
00
78
CC
84
FC
80
C4
78
ENDCHAR
STARTCHAR Ebreve
ENCODING 276
SWIDTH 722 0
DWIDTH 10 0
BBX 9 14 0 0
BITMAP
1200
0C00
0000
FF80
2080
2080
2400
2400
3C00
2400
2400
2080
2080
FF80
ENDCHAR
STARTCHAR ebreve
ENCODING 277
SWIDTH 500 0
DWIDTH 7 0
BBX 6 10 0 0
BITMAP
48
30
00
78
CC
84
FC
80
C4
78
ENDCHAR
STARTCHAR Edotaccent
ENCODING 278
SWIDTH 722 0
DWIDTH 10 0
BBX 9 14 0 0
BITMAP
0800
0800
0000
FF80
2080
2080
2400
2400
3C00
2400
2400
2080
2080
FF80
ENDCHAR
STARTCHAR edotaccent
ENCODING 279
SWIDTH 500 0
DWIDTH 7 0
BBX 6 10 0 0
BITMAP
10
10
00
78
CC
84
FC
80
C4
78
ENDCHAR
STARTCHAR Eogonek
ENCODING 280
SWIDTH 722 0
DWIDTH 10 0
BBX 9 14 0 -3
BITMAP
FF80
2080
2080
2400
2400
3C00
2400
2400
2080
2080
FF80
0800
1000
1C00
ENDCHAR
STARTCHAR eogonek
ENCODING 281
SWIDTH 500 0
DWIDTH 7 0
BBX 6 10 0 -3
BITMAP
78
CC
84
FC
80
C4
78
20
40
70
ENDCHAR
STARTCHAR Ecaron
ENCODING 282
SWIDTH 722 0
DWIDTH 10 0
BBX 9 15 0 0
BITMAP
2200
1400
0800
0000
FF80
2080
2080
2400
2400
3C00
2400
2400
2080
2080
FF80
ENDCHAR
STARTCHAR ecaron
ENCODING 283
SWIDTH 500 0
DWIDTH 7 0
BBX 6 11 0 0
BITMAP
44
28
10
00
78
CC
84
FC
80
C4
78
ENDCHAR
STARTCHAR Gcircumflex
ENCODING 284
SWIDTH 778 0
DWIDTH 11 0
BBX 10 15 0 0
BITMAP
0400
0A00
1100
0000
1E80
6180
4080
C080
8000
8000
87C0
C080
4080
6180
1E80
ENDCHAR
STARTCHAR gcircumflex
ENCODING 285
SWIDTH 537 0
DWIDTH 8 0
BBX 7 14 0 -3
BITMAP
10
28
44
00
76
CC
84
CC
78
80
7C
C6
82
7C
ENDCHAR
STARTCHAR Gbreve
ENCODING 286
SWIDTH 778 0
DWIDTH 11 0
BBX 10 14 0 0
BITMAP
1200
0C00
0000
1E80
6180
4080
C080
8000
8000
87C0
C080
4080
6180
1E80
ENDCHAR
STARTCHAR gbreve
ENCODING 287
SWIDTH 537 0
DWIDTH 8 0
BBX 7 13 0 -3
BITMAP
48
30
00
76
CC
84
CC
78
80
7C
C6
82
7C
ENDCHAR
STARTCHAR Gdotaccent
ENCODING 288
SWIDTH 778 0
DWIDTH 11 0
BBX 10 14 0 0
BITMAP
0400
0400
0000
1E80
6180
4080
C080
8000
8000
87C0
C080
4080
6180
1E80
ENDCHAR
STARTCHAR gdotaccent
ENCODING 289
SWIDTH 537 0
DWIDTH 8 0
BBX 7 13 0 -3
BITMAP
10
10
00
76
CC
84
CC
78
80
7C
C6
82
7C
ENDCHAR
STARTCHAR Gcommaaccent
ENCODING 290
SWIDTH 778 0
DWIDTH 11 0
BBX 10 16 0 -5
BITMAP
1E80
6180
4080
C080
8000
8000
87C0
C080
4080
6180
1E80
0000
0C00
0400
0400
0800
ENDCHAR
STARTCHAR gcommaaccent
ENCODING 291
SWIDTH 537 0
DWIDTH 8 0
BBX 7 15 0 -3
BITMAP
08
10
10
18
00
76
CC
84
CC
78
80
7C
C6
82
7C
ENDCHAR
STARTCHAR Hcircumflex
ENCODING 292
SWIDTH 833 0
DWIDTH 12 0
BBX 11 15 0 0
BITMAP
0400
0A00
1100
0000
FBE0
2080
2080
2080
2080
3F80
2080
2080
2080
2080
FBE0
ENDCHAR
STARTCHAR hcircumflex
ENCODING 293
SWIDTH 611 0
DWIDTH 9 0
BBX 8 15 0 0
BITMAP
20
50
88
00
C0
40
40
40
5C
66
42
42
42
42
E7
ENDCHAR
STARTCHAR Hbar
ENCODING 294
SWIDTH 833 0
DWIDTH 12 0
BBX 11 11 0 0
BITMAP
FBE0
2080
2080
FFE0
2080
3F80
2080
2080
2080
2080
FBE0
ENDCHAR
STARTCHAR hbar
ENCODING 295
SWIDTH 611 0
DWIDTH 9 0
BBX 8 11 0 0
BITMAP
C0
40
F8
40
5C
66
42
42
42
42
E7
ENDCHAR
STARTCHAR Itilde
ENCODING 296
SWIDTH 407 0
DWIDTH 6 0
BBX 6 14 0 0
BITMAP
64
98
00
F8
20
20
20
20
20
20
20
20
20
F8
ENDCHAR
STARTCHAR itilde
ENCODING 297
SWIDTH 315 0
DWIDTH 4 0
BBX 6 10 -2 0
BITMAP
64
98
00
30
10
10
10
10
10
38
ENDCHAR
STARTCHAR Imacron
ENCODING 298
SWIDTH 407 0
DWIDTH 6 0
BBX 5 13 0 0
BITMAP
F8
00
F8
20
20
20
20
20
20
20
20
20
F8
ENDCHAR
STARTCHAR imacron
ENCODING 299
SWIDTH 315 0
DWIDTH 4 0
BBX 5 9 -1 0
BITMAP
F8
00
60
20
20
20
20
20
70
ENDCHAR
STARTCHAR Ibreve
ENCODING 300
SWIDTH 407 0
DWIDTH 6 0
BBX 5 14 0 0
BITMAP
48
30
00
F8
20
20
20
20
20
20
20
20
20
F8
ENDCHAR
STARTCHAR ibreve
ENCODING 301
SWIDTH 315 0
DWIDTH 4 0
BBX 4 10 -1 0
BITMAP
90
60
00
60
20
20
20
20
20
70
ENDCHAR
STARTCHAR Iogonek
ENCODING 302
SWIDTH 407 0
DWIDTH 6 0
BBX 5 14 0 -3
BITMAP
F8
20
20
20
20
20
20
20
20
20
F8
20
40
70
ENDCHAR
STARTCHAR iogonek
ENCODING 303
SWIDTH 315 0
DWIDTH 4 0
BBX 3 13 0 -3
BITMAP
40
40
00
C0
40
40
40
40
40
E0
40
80
E0
ENDCHAR
STARTCHAR Idotaccent
ENCODING 304
SWIDTH 407 0
DWIDTH 6 0
BBX 5 14 0 0
BITMAP
20
20
00
F8
20
20
20
20
20
20
20
20
20
F8
ENDCHAR
STARTCHAR dotlessi
ENCODING 305
SWIDTH 315 0
DWIDTH 4 0
BBX 3 7 0 0
BITMAP
C0
40
40
40
40
40
E0
ENDCHAR
STARTCHAR IJ
ENCODING 306
SWIDTH 943 0
DWIDTH 13 0
BBX 13 11 0 0
BITMAP
F8F8
2020
2020
2020
2020
2020
2020
2320
2220
2220
F9C0
ENDCHAR
STARTCHAR ij
ENCODING 307
SWIDTH 595 0
DWIDTH 8 0
BBX 6 13 0 -3
BITMAP
44
44
00
CC
44
44
44
44
44
E4
04
14
18
ENDCHAR
STARTCHAR Jcircumflex
ENCODING 308
SWIDTH 556 0
DWIDTH 7 0
BBX 7 15 0 0
BITMAP
08
14
22
00
3E
08
08
08
08
08
08
C8
88
88
70
ENDCHAR
STARTCHAR jcircumflex
ENCODING 309
SWIDTH 296 0
DWIDTH 4 0
BBX 5 14 -1 -3
BITMAP
20
50
88
00
60
20
20
20
20
20
20
20
A0
C0
ENDCHAR
STARTCHAR Kcommaaccent
ENCODING 310
SWIDTH 778 0
DWIDTH 11 0
BBX 11 16 0 -5
BITMAP
FBC0
2100
2200
2400
2800
3800
3400
2600
2300
2180
FBE0
0000
0C00
0400
0400
0800
ENDCHAR
STARTCHAR kcommaaccent
ENCODING 311
SWIDTH 593 0
DWIDTH 9 0
BBX 8 16 0 -5
BITMAP
C0
40
40
40
5E
48
50
78
4C
46
EF
00
18
08
08
10
ENDCHAR
STARTCHAR kgreenlandic
ENCODING 312
SWIDTH 593 0
DWIDTH 9 0
BBX 8 7 0 0
BITMAP
5E
48
50
78
4C
46
EF
ENDCHAR
STARTCHAR Lacute
ENCODING 313
SWIDTH 667 0
DWIDTH 10 0
BBX 9 15 0 0
BITMAP
0800
1000
2000
0000
F800
2000
2000
2000
2000
2000
2000
2000
2080
2080
FF80
ENDCHAR
STARTCHAR lacute
ENCODING 314
SWIDTH 315 0
DWIDTH 4 0
BBX 4 15 0 0
BITMAP
10
20
40
00
C0
40
40
40
40
40
40
40
40
40
E0
ENDCHAR
STARTCHAR Lcommaaccent
ENCODING 315
SWIDTH 667 0
DWIDTH 10 0
BBX 9 16 0 -5
BITMAP
F800
2000
2000
2000
2000
2000
2000
2000
2080
2080
FF80
0000
0C00
0400
0400
0800
ENDCHAR
STARTCHAR lcommaaccent
ENCODING 316
SWIDTH 315 0
DWIDTH 4 0
BBX 3 16 0 -5
BITMAP
C0
40
40
40
40
40
40
40
40
40
E0
00
C0
40
40
80
ENDCHAR
STARTCHAR Lcaron
ENCODING 317
SWIDTH 838 0
DWIDTH 14 0
BBX 13 11 0 0
BITMAP
F818
2008
2008
2010
2000
2000
2000
2000
2080
2080
FF80
ENDCHAR
STARTCHAR lcaron
ENCODING 318
SWIDTH 503 0
DWIDTH 8 0
BBX 7 11 0 0
BITMAP
C6
42
42
44
40
40
40
40
40
40
E0
ENDCHAR
STARTCHAR Ldot
ENCODING 319
SWIDTH 912 0
DWIDTH 14 0
BBX 13 11 0 0
BITMAP
F800
2000
2000
2000
2000
2000
2018
2018
2080
2080
FF80
ENDCHAR
STARTCHAR ldot
ENCODING 320
SWIDTH 577 0
DWIDTH 8 0
BBX 7 11 0 0
BITMAP
C0
40
40
40
40
40
46
46
40
40
E0
ENDCHAR
STARTCHAR Lslash
ENCODING 321
SWIDTH 667 0
DWIDTH 10 0
BBX 9 11 0 0
BITMAP
F800
2000
2000
2800
3000
2000
6000
A000
2080
2080
FF80
ENDCHAR
STARTCHAR lslash
ENCODING 322
SWIDTH 315 0
DWIDTH 4 0
BBX 3 11 0 0
BITMAP
C0
40
40
40
60
C0
40
40
40
40
E0
ENDCHAR
STARTCHAR Nacute
ENCODING 323
SWIDTH 815 0
DWIDTH 13 0
BBX 12 15 0 0
BITMAP
0100
0200
0400
0000
E1F0
3040
3840
2840
2C40
2640
2340
2140
21C0
20C0
F840
ENDCHAR
STARTCHAR nacute
ENCODING 324
SWIDTH 611 0
DWIDTH 9 0
BBX 8 11 0 0
BITMAP
04
08
10
00
DC
66
42
42
42
42
E7
ENDCHAR
STARTCHAR Ncommaaccent
ENCODING 325
SWIDTH 815 0
DWIDTH 13 0
BBX 12 16 0 -5
BITMAP
E1F0
3040
3840
2840
2C40
2640
2340
2140
21C0
20C0
F840
0000
0600
0200
0200
0400
ENDCHAR
STARTCHAR ncommaaccent
ENCODING 326
SWIDTH 611 0
DWIDTH 9 0
BBX 8 12 0 -5
BITMAP
DC
66
42
42
42
42
E7
00
18
08
08
10
ENDCHAR
STARTCHAR Ncaron
ENCODING 327
SWIDTH 815 0
DWIDTH 13 0
BBX 12 15 0 0
BITMAP
1100
0A00
0400
0000
E1F0
3040
3840
2840
2C40
2640
2340
2140
21C0
20C0
F840
ENDCHAR
STARTCHAR ncaron
ENCODING 328
SWIDTH 611 0
DWIDTH 9 0
BBX 8 11 0 0
BITMAP
44
28
10
00
DC
66
42
42
42
42
E7
ENDCHAR
STARTCHAR napostrophe
ENCODING 329
SWIDTH 805 0
DWIDTH 13 0
BBX 11 11 1 0
BITMAP
C000
4000
4000
8000
1B80
0CC0
0840
0840
0840
0840
1CE0
ENDCHAR
STARTCHAR Eng
ENCODING 330
SWIDTH 815 0
DWIDTH 13 0
BBX 12 14 0 -3
BITMAP
E1F0
3040
3840
2840
2C40
2640
2340
2140
21C0
20C0
F840
0040
0140
0180
ENDCHAR
STARTCHAR eng
ENCODING 331
SWIDTH 611 0
DWIDTH 9 0
BBX 7 10 0 -3
BITMAP
DC
66
42
42
42
42
E2
02
0A
0C
ENDCHAR
STARTCHAR Omacron
ENCODING 332
SWIDTH 778 0
DWIDTH 11 0
BBX 10 13 0 0
BITMAP
1F00
0000
1E00
6180
4080
C0C0
8040
8040
8040
C0C0
4080
6180
1E00
ENDCHAR
STARTCHAR omacron
ENCODING 333
SWIDTH 500 0
DWIDTH 7 0
BBX 6 9 0 0
BITMAP
7C
00
78
CC
84
84
84
CC
78
ENDCHAR
STARTCHAR Obreve
ENCODING 334
SWIDTH 778 0
DWIDTH 11 0
BBX 10 14 0 0
BITMAP
1200
0C00
0000
1E00
6180
4080
C0C0
8040
8040
8040
C0C0
4080
6180
1E00
ENDCHAR
STARTCHAR obreve
ENCODING 335
SWIDTH 500 0
DWIDTH 7 0
BBX 6 10 0 0
BITMAP
48
30
00
78
CC
84
84
84
CC
78
ENDCHAR
STARTCHAR Ohungarumlaut
ENCODING 336
SWIDTH 778 0
DWIDTH 11 0
BBX 10 15 0 0
BITMAP
0480
0900
1200
0000
1E00
6180
4080
C0C0
8040
8040
8040
C0C0
4080
6180
1E00
ENDCHAR
STARTCHAR ohungarumlaut
ENCODING 337
SWIDTH 500 0
DWIDTH 7 0
BBX 7 11 0 0
BITMAP
12
24
48
00
78
CC
84
84
84
CC
78
ENDCHAR
STARTCHAR OE
ENCODING 338
SWIDTH 1000 0
DWIDTH 16 0
BBX 14 11 1 0
BITMAP
1FFC
6104
4104
C120
8120
81E0
8120
C120
4104
6104
1FFC
ENDCHAR
STARTCHAR oe
ENCODING 339
SWIDTH 833 0
DWIDTH 12 0
BBX 11 7 0 0
BITMAP
7BC0
CE60
8420
87E0
8400
CE20
7BC0
ENDCHAR
STARTCHAR Racute
ENCODING 340
SWIDTH 722 0
DWIDTH 11 0
BBX 11 15 0 0
BITMAP
0200
0400
0800
0000
FF00
2180
2080
2080
2100
3E00
2300
2100
2120
21A0
F8C0
ENDCHAR
STARTCHAR racute
ENCODING 341
SWIDTH 444 0
DWIDTH 7 0
BBX 6 11 0 0
BITMAP
08
10
20
00
DC
64
40
40
40
40
E0
ENDCHAR
STARTCHAR Rcommaaccent
ENCODING 342
SWIDTH 722 0
DWIDTH 11 0
BBX 11 16 0 -5
BITMAP
FF00
2180
2080
2080
2100
3E00
2300
2100
2120
21A0
F8C0
0000
0600
0200
0200
0400
ENDCHAR
STARTCHAR rcommaaccent
ENCODING 343
SWIDTH 444 0
DWIDTH 7 0
BBX 6 12 0 -5
BITMAP
DC
64
40
40
40
40
E0
00
60
20
20
40
ENDCHAR
STARTCHAR Rcaron
ENCODING 344
SWIDTH 722 0
DWIDTH 11 0
BBX 11 15 0 0
BITMAP
2200
1400
0800
0000
FF00
2180
2080
2080
2100
3E00
2300
2100
2120
21A0
F8C0
ENDCHAR
STARTCHAR rcaron
ENCODING 345
SWIDTH 444 0
DWIDTH 7 0
BBX 6 11 0 0
BITMAP
44
28
10
00
DC
64
40
40
40
40
E0
ENDCHAR
STARTCHAR Sacute
ENCODING 346
SWIDTH 630 0
DWIDTH 8 0
BBX 7 15 0 0
BITMAP
04
08
10
00
7A
C6
82
82
E0
38
0E
82
82
C6
BC
ENDCHAR
STARTCHAR sacute
ENCODING 347
SWIDTH 463 0
DWIDTH 6 0
BBX 5 11 0 0
BITMAP
08
10
20
00
78
88
C0
70
18
88
F0
ENDCHAR
STARTCHAR Scircumflex
ENCODING 348
SWIDTH 630 0
DWIDTH 8 0
BBX 7 15 0 0
BITMAP
10
28
44
00
7A
C6
82
82
E0
38
0E
82
82
C6
BC
ENDCHAR
STARTCHAR scircumflex
ENCODING 349
SWIDTH 463 0
DWIDTH 6 0
BBX 5 11 0 0
BITMAP
20
50
88
00
78
88
C0
70
18
88
F0
ENDCHAR
STARTCHAR Scedilla
ENCODING 350
SWIDTH 630 0
DWIDTH 8 0
BBX 7 14 0 -3
BITMAP
7A
C6
82
82
E0
38
0E
82
82
C6
BC
10
08
30
ENDCHAR
STARTCHAR scedilla
ENCODING 351
SWIDTH 463 0
DWIDTH 6 0
BBX 5 10 0 -3
BITMAP
78
88
C0
70
18
88
F0
20
10
60
ENDCHAR
STARTCHAR Scaron
ENCODING 352
SWIDTH 630 0
DWIDTH 8 0
BBX 7 11 0 0
BITMAP
44
28
10
00
7A
C6
80
7C
02
C6
BC
ENDCHAR
STARTCHAR scaron
ENCODING 353
SWIDTH 463 0
DWIDTH 6 0
BBX 5 11 0 0
BITMAP
88
50
20
00
78
88
C0
70
18
88
F0
ENDCHAR
STARTCHAR Tcommaaccent
ENCODING 354
SWIDTH 667 0
DWIDTH 10 0
BBX 9 14 0 -3
BITMAP
FF80
8880
8880
0800
0800
0800
0800
0800
0800
0800
3E00
0800
0400
1800
ENDCHAR
STARTCHAR tcommaaccent
ENCODING 355
SWIDTH 389 0
DWIDTH 5 0
BBX 5 12 0 -3
BITMAP
40
40
F0
40
40
40
40
48
30
20
10
60
ENDCHAR
STARTCHAR Tcaron
ENCODING 356
SWIDTH 667 0
DWIDTH 10 0
BBX 9 15 0 0
BITMAP
2200
1400
0800
0000
FF80
8880
8880
0800
0800
0800
0800
0800
0800
0800
3E00
ENDCHAR
STARTCHAR tcaron
ENCODING 357
SWIDTH 574 0
DWIDTH 9 0
BBX 8 11 0 0
BITMAP
03
01
41
42
F0
40
40
40
40
48
30
ENDCHAR
STARTCHAR Tbar
ENCODING 358
SWIDTH 667 0
DWIDTH 10 0
BBX 9 11 0 0
BITMAP
FF80
8880
8880
0800
0800
3E00
0800
0800
0800
0800
3E00
ENDCHAR
STARTCHAR tbar
ENCODING 359
SWIDTH 389 0
DWIDTH 5 0
BBX 5 9 0 0
BITMAP
40
40
F0
40
40
F8
40
48
30
ENDCHAR
STARTCHAR Utilde
ENCODING 360
SWIDTH 815 0
DWIDTH 13 0
BBX 12 14 0 0
BITMAP
0C80
1300
0000
F9F0
2040
2040
2040
2040
2040
2040
2040
2040
3080
1F00
ENDCHAR
STARTCHAR utilde
ENCODING 361
SWIDTH 611 0
DWIDTH 9 0
BBX 8 10 0 0
BITMAP
32
4C
00
E7
42
42
42
42
66
3B
ENDCHAR
STARTCHAR Umacron
ENCODING 362
SWIDTH 815 0
DWIDTH 13 0
BBX 12 13 0 0
BITMAP
0F80
0000
F9F0
2040
2040
2040
2040
2040
2040
2040
2040
3080
1F00
ENDCHAR
STARTCHAR umacron
ENCODING 363
SWIDTH 611 0
DWIDTH 9 0
BBX 8 9 0 0
BITMAP
3E
00
E7
42
42
42
42
66
3B
ENDCHAR
STARTCHAR Ubreve
ENCODING 364
SWIDTH 815 0
DWIDTH 13 0
BBX 12 14 0 0
BITMAP
0900
0600
0000
F9F0
2040
2040
2040
2040
2040
2040
2040
2040
3080
1F00
ENDCHAR
STARTCHAR ubreve
ENCODING 365
SWIDTH 611 0
DWIDTH 9 0
BBX 8 10 0 0
BITMAP
24
18
00
E7
42
42
42
42
66
3B
ENDCHAR
STARTCHAR Uring
ENCODING 366
SWIDTH 815 0
DWIDTH 13 0
BBX 12 15 0 0
BITMAP
0600
0900
0600
0000
F9F0
2040
2040
2040
2040
2040
2040
2040
2040
3080
1F00
ENDCHAR
STARTCHAR uring
ENCODING 367
SWIDTH 611 0
DWIDTH 9 0
BBX 8 11 0 0
BITMAP
18
24
18
00
E7
42
42
42
42
66
3B
ENDCHAR
STARTCHAR Uhungarumlaut
ENCODING 368
SWIDTH 815 0
DWIDTH 13 0
BBX 12 15 0 0
BITMAP
0240
0480
0900
0000
F9F0
2040
2040
2040
2040
2040
2040
2040
2040
3080
1F00
ENDCHAR
STARTCHAR uhungarumlaut
ENCODING 369
SWIDTH 611 0
DWIDTH 9 0
BBX 8 11 0 0
BITMAP
09
12
24
00
E7
42
42
42
42
66
3B
ENDCHAR
STARTCHAR Uogonek
ENCODING 370
SWIDTH 815 0
DWIDTH 13 0
BBX 12 14 0 -3
BITMAP
F9F0
2040
2040
2040
2040
2040
2040
2040
2040
3080
1F00
0400
0800
0E00
ENDCHAR
STARTCHAR uogonek
ENCODING 371
SWIDTH 611 0
DWIDTH 9 0
BBX 8 10 0 -3
BITMAP
E7
42
42
42
42
66
3B
08
10
1C
ENDCHAR
STARTCHAR Wcircumflex
ENCODING 372
SWIDTH 981 0
DWIDTH 16 0
BBX 17 15 -1 0
BITMAP
008000
014000
022000
000000
FBEF80
208300
30C200
11C200
114400
196400
0B2800
0A2800
0E3800
061000
041000
ENDCHAR
STARTCHAR wcircumflex
ENCODING 373
SWIDTH 778 0
DWIDTH 12 0
BBX 11 11 0 0
BITMAP
0400
0A00
1100
0000
EEE0
4440
4440
2A80
2A80
1100
1100
ENDCHAR
STARTCHAR Ycircumflex
ENCODING 374
SWIDTH 704 0
DWIDTH 10 0
BBX 11 15 -1 0
BITMAP
0400
0A00
1100
0000
FBE0
6080
3100
1100
1A00
0A00
0400
0400
0400
0400
1F00
ENDCHAR
STARTCHAR ycircumflex
ENCODING 375
SWIDTH 537 0
DWIDTH 8 0
BBX 7 14 0 -3
BITMAP
10
28
44
00
EE
44
44
28
28
10
10
20
A0
C0
ENDCHAR
STARTCHAR Ydieresis
ENCODING 376
SWIDTH 704 0
DWIDTH 10 0
BBX 11 11 -1 0
BITMAP
1200
1200
0000
0000
F1E0
2080
1100
0A00
0400
0400
1F00
ENDCHAR
STARTCHAR Zacute
ENCODING 377
SWIDTH 611 0
DWIDTH 9 0
BBX 8 15 0 0
BITMAP
04
08
10
00
FF
83
86
0C
08
18
30
20
61
C1
FF
ENDCHAR
STARTCHAR zacute
ENCODING 378
SWIDTH 481 0
DWIDTH 7 0
BBX 6 11 0 0
BITMAP
08
10
20
00
FC
8C
98
30
64
C4
FC
ENDCHAR
STARTCHAR Zdotaccent
ENCODING 379
SWIDTH 611 0
DWIDTH 9 0
BBX 8 14 0 0
BITMAP
08
08
00
FF
83
86
0C
08
18
30
20
61
C1
FF
ENDCHAR
STARTCHAR zdotaccent
ENCODING 380
SWIDTH 481 0
DWIDTH 7 0
BBX 6 10 0 0
BITMAP
10
10
00
FC
8C
98
30
64
C4
FC
ENDCHAR
STARTCHAR Zcaron
ENCODING 381
SWIDTH 611 0
DWIDTH 9 0
BBX 8 11 0 0
BITMAP
44
28
10
00
FF
83
86
1C
71
C1
FF
ENDCHAR
STARTCHAR zcaron
ENCODING 382
SWIDTH 481 0
DWIDTH 7 0
BBX 6 11 0 0
BITMAP
88
50
20
00
FC
8C
98
30
64
C4
FC
ENDCHAR
STARTCHAR uni0186
ENCODING 390
SWIDTH 722 0
DWIDTH 11 0
BBX 9 11 1 0
BITMAP
3C00
4300
8100
8180
0080
0080
0080
8180
8100
C300
BC00
ENDCHAR
STARTCHAR uni0189
ENCODING 393
SWIDTH 778 0
DWIDTH 11 0
BBX 10 11 0 0
BITMAP
FF00
2080
20C0
2040
2040
F840
2040
2040
20C0
2080
FF00
ENDCHAR
STARTCHAR uni018E
ENCODING 398
SWIDTH 722 0
DWIDTH 10 0
BBX 9 11 0 0
BITMAP
FF80
8200
8200
1200
1200
1E00
1200
1200
8200
8200
FF80
ENDCHAR
STARTCHAR florin
ENCODING 402
SWIDTH 556 0
DWIDTH 7 0
BBX 9 14 -2 -3
BITMAP
0380
0480
0400
0400
1F00
0800
0800
0800
0800
1000
1000
1000
9000
E000
ENDCHAR
STARTCHAR uni0197
ENCODING 407
SWIDTH 407 0
DWIDTH 6 0
BBX 5 11 0 0
BITMAP
F8
20
20
20
20
F8
20
20
20
20
F8
ENDCHAR
STARTCHAR uni019A
ENCODING 410
SWIDTH 315 0
DWIDTH 4 0
BBX 5 11 -1 0
BITMAP
60
20
20
20
20
F8
20
20
20
20
70
ENDCHAR
STARTCHAR uni019D
ENCODING 413
SWIDTH 815 0
DWIDTH 13 0
BBX 12 14 0 -3
BITMAP
E1F0
3040
3840
2840
2C40
2640
2340
2140
21C0
20C0
2040
2000
A000
C000
ENDCHAR
STARTCHAR uni019F
ENCODING 415
SWIDTH 778 0
DWIDTH 11 0
BBX 10 11 0 0
BITMAP
1E00
6180
4080
C0C0
8040
FFC0
8040
C0C0
4080
6180
1E00
ENDCHAR
STARTCHAR Ohorn
ENCODING 416
SWIDTH 778 0
DWIDTH 11 0
BBX 11 11 0 0
BITMAP
1E60
61A0
40A0
C0C0
8040
8040
8040
C0C0
4080
6180
1E00
ENDCHAR
STARTCHAR ohorn
ENCODING 417
SWIDTH 500 0
DWIDTH 7 0
BBX 8 7 0 0
BITMAP
7B
CD
85
86
84
CC
78
ENDCHAR
STARTCHAR uni01A7
ENCODING 423
SWIDTH 630 0
DWIDTH 8 0
BBX 7 11 0 0
BITMAP
BC
C6
82
82
0E
38
E0
82
82
C6
7A
ENDCHAR
STARTCHAR uni01A8
ENCODING 424
SWIDTH 463 0
DWIDTH 6 0
BBX 5 7 0 0
BITMAP
F0
88
18
70
C0
88
78
ENDCHAR
STARTCHAR uni01AE
ENCODING 430
SWIDTH 667 0
DWIDTH 10 0
BBX 9 14 0 -3
BITMAP
FF80
8880
8880
0800
0800
0800
0800
0800
0800
0800
0800
0800
0A00
0600
ENDCHAR
STARTCHAR Uhorn
ENCODING 431
SWIDTH 815 0
DWIDTH 13 0
BBX 13 11 0 0
BITMAP
F9F8
2048
2048
2050
2040
2040
2040
2040
2040
3080
1F00
ENDCHAR
STARTCHAR uhorn
ENCODING 432
SWIDTH 611 0
DWIDTH 9 0
BBX 10 7 0 0
BITMAP
E7C0
4240
4240
4280
4200
6600
3B00
ENDCHAR
STARTCHAR uni01B5
ENCODING 437
SWIDTH 611 0
DWIDTH 9 0
BBX 8 11 0 0
BITMAP
FF
83
86
0C
08
3E
30
20
61
C1
FF
ENDCHAR
STARTCHAR uni01B6
ENCODING 438
SWIDTH 481 0
DWIDTH 7 0
BBX 6 7 0 0
BITMAP
FC
8C
98
7C
64
C4
FC
ENDCHAR
STARTCHAR uni01BB
ENCODING 443
SWIDTH 556 0
DWIDTH 8 0
BBX 6 11 1 0
BITMAP
78
8C
C4
04
04
FC
10
20
44
84
FC
ENDCHAR
STARTCHAR uni01BC
ENCODING 444
SWIDTH 556 0
DWIDTH 8 0
BBX 6 11 1 0
BITMAP
FC
80
80
B8
CC
84
04
04
C4
8C
78
ENDCHAR
STARTCHAR uni01C0
ENCODING 448
SWIDTH 606 0
DWIDTH 9 0
BBX 1 11 4 0
BITMAP
80
80
80
80
80
80
80
80
80
80
80
ENDCHAR
STARTCHAR uni01C2
ENCODING 450
SWIDTH 606 0
DWIDTH 9 0
BBX 7 11 1 -1
BITMAP
10
10
10
10
FE
10
10
FE
10
10
10
ENDCHAR
STARTCHAR uni01C3
ENCODING 451
SWIDTH 296 0
DWIDTH 3 0
BBX 1 11 1 0
BITMAP
80
80
80
80
80
80
80
80
00
80
80
ENDCHAR
STARTCHAR uni01CD
ENCODING 461
SWIDTH 722 0
DWIDTH 10 0
BBX 11 15 -1 0
BITMAP
1100
0A00
0400
0000
0400
0400
0A00
0A00
0A00
1100
1100
3F80
2080
2080
FBE0
ENDCHAR
STARTCHAR uni01CE
ENCODING 462
SWIDTH 556 0
DWIDTH 8 0
BBX 7 11 0 0
BITMAP
44
28
10
00
38
4C
04
3C
C4
8C
76
ENDCHAR
STARTCHAR uni01CF
ENCODING 463
SWIDTH 407 0
DWIDTH 6 0
BBX 5 15 0 0
BITMAP
88
50
20
00
F8
20
20
20
20
20
20
20
20
20
F8
ENDCHAR
STARTCHAR uni01D0
ENCODING 464
SWIDTH 315 0
DWIDTH 4 0
BBX 5 11 -1 0
BITMAP
88
50
20
00
60
20
20
20
20
20
70
ENDCHAR
STARTCHAR uni01D1
ENCODING 465
SWIDTH 778 0
DWIDTH 11 0
BBX 10 15 0 0
BITMAP
1100
0A00
0400
0000
1E00
6180
4080
C0C0
8040
8040
8040
C0C0
4080
6180
1E00
ENDCHAR
STARTCHAR uni01D2
ENCODING 466
SWIDTH 500 0
DWIDTH 7 0
BBX 6 11 0 0
BITMAP
44
28
10
00
78
CC
84
84
84
CC
78
ENDCHAR
STARTCHAR uni01D3
ENCODING 467
SWIDTH 815 0
DWIDTH 13 0
BBX 12 15 0 0
BITMAP
0880
0500
0200
0000
F9F0
2040
2040
2040
2040
2040
2040
2040
2040
3080
1F00
ENDCHAR
STARTCHAR uni01D4
ENCODING 468
SWIDTH 611 0
DWIDTH 9 0
BBX 8 11 0 0
BITMAP
22
14
08
00
E7
42
42
42
42
66
3B
ENDCHAR
STARTCHAR uni01D5
ENCODING 469
SWIDTH 815 0
DWIDTH 13 0
BBX 12 16 0 0
BITMAP
0F80
0000
0900
0900
0000
F9F0
2040
2040
2040
2040
2040
2040
2040
2040
3080
1F00
ENDCHAR
STARTCHAR uni01D6
ENCODING 470
SWIDTH 611 0
DWIDTH 9 0
BBX 8 12 0 0
BITMAP
3E
00
24
24
00
E7
42
42
42
42
66
3B
ENDCHAR
STARTCHAR uni01D7
ENCODING 471
SWIDTH 815 0
DWIDTH 13 0
BBX 12 18 0 0
BITMAP
0100
0200
0400
0000
0900
0900
0000
F9F0
2040
2040
2040
2040
2040
2040
2040
2040
3080
1F00
ENDCHAR
STARTCHAR uni01D8
ENCODING 472
SWIDTH 611 0
DWIDTH 9 0
BBX 8 14 0 0
BITMAP
04
08
10
00
24
24
00
E7
42
42
42
42
66
3B
ENDCHAR
STARTCHAR uni01D9
ENCODING 473
SWIDTH 815 0
DWIDTH 13 0
BBX 12 18 0 0
BITMAP
0880
0500
0200
0000
0900
0900
0000
F9F0
2040
2040
2040
2040
2040
2040
2040
2040
3080
1F00
ENDCHAR
STARTCHAR uni01DA
ENCODING 474
SWIDTH 611 0
DWIDTH 9 0
BBX 8 14 0 0
BITMAP
22
14
08
00
24
24
00
E7
42
42
42
42
66
3B
ENDCHAR
STARTCHAR uni01DB
ENCODING 475
SWIDTH 815 0
DWIDTH 13 0
BBX 12 18 0 0
BITMAP
0800
0400
0200
0000
0900
0900
0000
F9F0
2040
2040
2040
2040
2040
2040
2040
2040
3080
1F00
ENDCHAR
STARTCHAR uni01DC
ENCODING 476
SWIDTH 611 0
DWIDTH 9 0
BBX 8 14 0 0
BITMAP
20
10
08
00
24
24
00
E7
42
42
42
42
66
3B
ENDCHAR
STARTCHAR uni01DD
ENCODING 477
SWIDTH 500 0
DWIDTH 7 0
BBX 6 7 0 0
BITMAP
78
8C
04
FC
84
CC
78
ENDCHAR
STARTCHAR uni01DE
ENCODING 478
SWIDTH 722 0
DWIDTH 10 0
BBX 11 15 -1 0
BITMAP
1F00
0000
1100
1100
0400
0400
0A00
0A00
0A00
1100
1100
3F80
2080
2080
FBE0
ENDCHAR
STARTCHAR uni01DF
ENCODING 479
SWIDTH 556 0
DWIDTH 8 0
BBX 7 12 0 0
BITMAP
7C
00
48
48
00
38
4C
04
3C
C4
8C
76
ENDCHAR
STARTCHAR uni01E0
ENCODING 480
SWIDTH 722 0
DWIDTH 10 0
BBX 11 16 -1 0
BITMAP
1F00
0000
0400
0400
0000
0400
0400
0A00
0A00
0A00
1100
1100
3F80
2080
2080
FBE0
ENDCHAR
STARTCHAR uni01E1
ENCODING 481
SWIDTH 556 0
DWIDTH 8 0
BBX 7 12 0 0
BITMAP
7C
00
10
10
00
38
4C
04
3C
C4
8C
76
ENDCHAR
STARTCHAR uni01E2
ENCODING 482
SWIDTH 1000 0
DWIDTH 15 0
BBX 14 13 0 0
BITMAP
03E0
0000
0FFC
0504
0904
0920
1120
11E0
3F20
2120
4104
4104
E3FC
ENDCHAR
STARTCHAR uni01E3
ENCODING 483
SWIDTH 796 0
DWIDTH 12 0
BBX 11 9 0 0
BITMAP
1F00
0000
3BC0
4E60
0420
3FE0
C400
8E20
73C0
ENDCHAR
STARTCHAR uni01E4
ENCODING 484
SWIDTH 778 0
DWIDTH 11 0
BBX 11 11 0 0
BITMAP
1E80
6180
4080
C080
8000
8000
87C0
C080
43E0
6180
1E80
ENDCHAR
STARTCHAR uni01E5
ENCODING 485
SWIDTH 537 0
DWIDTH 8 0
BBX 7 10 0 -3
BITMAP
76
CC
84
CC
78
80
7C
FE
82
7C
ENDCHAR
STARTCHAR Gcaron
ENCODING 486
SWIDTH 778 0
DWIDTH 11 0
BBX 10 15 0 0
BITMAP
1100
0A00
0400
0000
1E80
6180
4080
C080
8000
8000
87C0
C080
4080
6180
1E80
ENDCHAR
STARTCHAR gcaron
ENCODING 487
SWIDTH 537 0
DWIDTH 8 0
BBX 7 14 0 -3
BITMAP
44
28
10
00
76
CC
84
CC
78
80
7C
C6
82
7C
ENDCHAR
STARTCHAR uni01E8
ENCODING 488
SWIDTH 778 0
DWIDTH 11 0
BBX 11 15 0 0
BITMAP
1100
0A00
0400
0000
FBC0
2100
2200
2400
2800
3800
3400
2600
2300
2180
FBE0
ENDCHAR
STARTCHAR uni01E9
ENCODING 489
SWIDTH 593 0
DWIDTH 9 0
BBX 8 15 0 0
BITMAP
88
50
20
00
C0
40
40
40
5E
48
50
78
4C
46
EF
ENDCHAR
STARTCHAR uni01EA
ENCODING 490
SWIDTH 778 0
DWIDTH 11 0
BBX 10 14 0 -3
BITMAP
1E00
6180
4080
C0C0
8040
8040
8040
C0C0
4080
6180
1E00
0400
0800
0E00
ENDCHAR
STARTCHAR uni01EB
ENCODING 491
SWIDTH 500 0
DWIDTH 7 0
BBX 6 10 0 -3
BITMAP
78
CC
84
84
84
CC
78
10
20
38
ENDCHAR
STARTCHAR uni01EC
ENCODING 492
SWIDTH 778 0
DWIDTH 11 0
BBX 10 16 0 -3
BITMAP
1F00
0000
1E00
6180
4080
C0C0
8040
8040
8040
C0C0
4080
6180
1E00
0400
0800
0E00
ENDCHAR
STARTCHAR uni01ED
ENCODING 493
SWIDTH 500 0
DWIDTH 7 0
BBX 6 12 0 -3
BITMAP
7C
00
78
CC
84
84
84
CC
78
10
20
38
ENDCHAR
STARTCHAR uni01F0
ENCODING 496
SWIDTH 296 0
DWIDTH 4 0
BBX 5 14 -1 -3
BITMAP
88
50
20
00
60
20
20
20
20
20
20
20
A0
C0
ENDCHAR
STARTCHAR uni01F4
ENCODING 500
SWIDTH 778 0
DWIDTH 11 0
BBX 10 15 0 0
BITMAP
0200
0400
0800
0000
1E80
6180
4080
C080
8000
8000
87C0
C080
4080
6180
1E80
ENDCHAR
STARTCHAR uni01F5
ENCODING 501
SWIDTH 537 0
DWIDTH 8 0
BBX 7 14 0 -3
BITMAP
04
08
10
00
76
CC
84
CC
78
80
7C
C6
82
7C
ENDCHAR
STARTCHAR uni01F8
ENCODING 504
SWIDTH 815 0
DWIDTH 13 0
BBX 12 15 0 0
BITMAP
0800
0400
0200
0000
E1F0
3040
3840
2840
2C40
2640
2340
2140
21C0
20C0
F840
ENDCHAR
STARTCHAR uni01F9
ENCODING 505
SWIDTH 611 0
DWIDTH 9 0
BBX 8 11 0 0
BITMAP
20
10
08
00
DC
66
42
42
42
42
E7
ENDCHAR
STARTCHAR Aringacute
ENCODING 506
SWIDTH 722 0
DWIDTH 10 0
BBX 11 18 -1 0
BITMAP
0200
0400
0800
0000
0C00
1200
0C00
0400
0400
0A00
0A00
0A00
1100
1100
3F80
2080
2080
FBE0
ENDCHAR
STARTCHAR aringacute
ENCODING 507
SWIDTH 556 0
DWIDTH 8 0
BBX 7 15 0 0
BITMAP
08
10
20
00
30
48
30
00
38
4C
04
3C
C4
8C
76
ENDCHAR
STARTCHAR AEacute
ENCODING 508
SWIDTH 1000 0
DWIDTH 15 0
BBX 14 15 0 0
BITMAP
0040
0080
0100
0000
0FFC
0504
0904
0920
1120
11E0
3F20
2120
4104
4104
E3FC
ENDCHAR
STARTCHAR aeacute
ENCODING 509
SWIDTH 796 0
DWIDTH 12 0
BBX 11 11 0 0
BITMAP
0100
0200
0400
0000
3BC0
4E60
0420
3FE0
C400
8E20
73C0
ENDCHAR
STARTCHAR Oslashacute
ENCODING 510
SWIDTH 778 0
DWIDTH 11 0
BBX 11 15 -1 0
BITMAP
0100
0200
0400
0000
0F20
30C0
20C0
6160
4220
4420
4820
7060
2040
70C0
8F00
ENDCHAR
STARTCHAR oslashacute
ENCODING 511
SWIDTH 500 0
DWIDTH 7 0
BBX 6 13 0 -1
BITMAP
08
10
20
00
08
78
DC
94
A4
A4
CC
78
40
ENDCHAR
STARTCHAR uni0200
ENCODING 512
SWIDTH 722 0
DWIDTH 10 0
BBX 11 15 -1 0
BITMAP
2400
1200
0900
0000
0400
0400
0A00
0A00
0A00
1100
1100
3F80
2080
2080
FBE0
ENDCHAR
STARTCHAR uni0201
ENCODING 513
SWIDTH 556 0
DWIDTH 8 0
BBX 7 11 0 0
BITMAP
90
48
24
00
38
4C
04
3C
C4
8C
76
ENDCHAR
STARTCHAR uni0202
ENCODING 514
SWIDTH 722 0
DWIDTH 10 0
BBX 11 14 -1 0
BITMAP
0600
0900
0000
0400
0400
0A00
0A00
0A00
1100
1100
3F80
2080
2080
FBE0
ENDCHAR
STARTCHAR uni0203
ENCODING 515
SWIDTH 556 0
DWIDTH 8 0
BBX 7 10 0 0
BITMAP
18
24
00
38
4C
04
3C
C4
8C
76
ENDCHAR
STARTCHAR uni0204
ENCODING 516
SWIDTH 722 0
DWIDTH 10 0
BBX 9 15 0 0
BITMAP
4800
2400
1200
0000
FF80
2080
2080
2400
2400
3C00
2400
2400
2080
2080
FF80
ENDCHAR
STARTCHAR uni0205
ENCODING 517
SWIDTH 500 0
DWIDTH 7 0
BBX 7 11 -1 0
BITMAP
90
48
24
00
3C
66
42
7E
40
62
3C
ENDCHAR
STARTCHAR uni0206
ENCODING 518
SWIDTH 722 0
DWIDTH 10 0
BBX 9 14 0 0
BITMAP
0C00
1200
0000
FF80
2080
2080
2400
2400
3C00
2400
2400
2080
2080
FF80
ENDCHAR
STARTCHAR uni0207
ENCODING 519
SWIDTH 500 0
DWIDTH 7 0
BBX 6 10 0 0
BITMAP
30
48
00
78
CC
84
FC
80
C4
78
ENDCHAR
STARTCHAR uni0208
ENCODING 520
SWIDTH 407 0
DWIDTH 6 0
BBX 6 15 -1 0
BITMAP
90
48
24
00
7C
10
10
10
10
10
10
10
10
10
7C
ENDCHAR
STARTCHAR uni0209
ENCODING 521
SWIDTH 315 0
DWIDTH 4 0
BBX 6 11 -2 0
BITMAP
90
48
24
00
30
10
10
10
10
10
38
ENDCHAR
STARTCHAR uni020A
ENCODING 522
SWIDTH 407 0
DWIDTH 6 0
BBX 5 14 0 0
BITMAP
30
48
00
F8
20
20
20
20
20
20
20
20
20
F8
ENDCHAR
STARTCHAR uni020B
ENCODING 523
SWIDTH 315 0
DWIDTH 4 0
BBX 4 10 -1 0
BITMAP
60
90
00
60
20
20
20
20
20
70
ENDCHAR
STARTCHAR uni020C
ENCODING 524
SWIDTH 778 0
DWIDTH 11 0
BBX 10 15 0 0
BITMAP
4800
2400
1200
0000
1E00
6180
4080
C0C0
8040
8040
8040
C0C0
4080
6180
1E00
ENDCHAR
STARTCHAR uni020D
ENCODING 525
SWIDTH 500 0
DWIDTH 7 0
BBX 7 11 -1 0
BITMAP
90
48
24
00
3C
66
42
42
42
66
3C
ENDCHAR
STARTCHAR uni020E
ENCODING 526
SWIDTH 778 0
DWIDTH 11 0
BBX 10 14 0 0
BITMAP
0C00
1200
0000
1E00
6180
4080
C0C0
8040
8040
8040
C0C0
4080
6180
1E00
ENDCHAR
STARTCHAR uni020F
ENCODING 527
SWIDTH 500 0
DWIDTH 7 0
BBX 6 10 0 0
BITMAP
30
48
00
78
CC
84
84
84
CC
78
ENDCHAR
STARTCHAR uni0210
ENCODING 528
SWIDTH 722 0
DWIDTH 11 0
BBX 11 15 0 0
BITMAP
4800
2400
1200
0000
FF00
2180
2080
2080
2100
3E00
2300
2100
2120
21A0
F8C0
ENDCHAR
STARTCHAR uni0211
ENCODING 529
SWIDTH 444 0
DWIDTH 7 0
BBX 7 11 -1 0
BITMAP
90
48
24
00
6E
32
20
20
20
20
70
ENDCHAR
STARTCHAR uni0212
ENCODING 530
SWIDTH 722 0
DWIDTH 11 0
BBX 11 14 0 0
BITMAP
0C00
1200
0000
FF00
2180
2080
2080
2100
3E00
2300
2100
2120
21A0
F8C0
ENDCHAR
STARTCHAR uni0213
ENCODING 531
SWIDTH 444 0
DWIDTH 7 0
BBX 6 10 0 0
BITMAP
30
48
00
DC
64
40
40
40
40
E0
ENDCHAR
STARTCHAR uni0214
ENCODING 532
SWIDTH 815 0
DWIDTH 13 0
BBX 12 15 0 0
BITMAP
2400
1200
0900
0000
F9F0
2040
2040
2040
2040
2040
2040
2040
2040
3080
1F00
ENDCHAR
STARTCHAR uni0215
ENCODING 533
SWIDTH 611 0
DWIDTH 9 0
BBX 8 11 0 0
BITMAP
90
48
24
00
E7
42
42
42
42
66
3B
ENDCHAR
STARTCHAR uni0216
ENCODING 534
SWIDTH 815 0
DWIDTH 13 0
BBX 12 14 0 0
BITMAP
0600
0900
0000
F9F0
2040
2040
2040
2040
2040
2040
2040
2040
3080
1F00
ENDCHAR
STARTCHAR uni0217
ENCODING 535
SWIDTH 611 0
DWIDTH 9 0
BBX 8 10 0 0
BITMAP
18
24
00
E7
42
42
42
42
66
3B
ENDCHAR
STARTCHAR Scommaaccent
ENCODING 536
SWIDTH 630 0
DWIDTH 8 0
BBX 7 16 0 -5
BITMAP
7A
C6
82
82
E0
38
0E
82
82
C6
BC
00
30
10
10
20
ENDCHAR
STARTCHAR scommaaccent
ENCODING 537
SWIDTH 463 0
DWIDTH 6 0
BBX 5 12 0 -5
BITMAP
78
88
C0
70
18
88
F0
00
60
20
20
40
ENDCHAR
STARTCHAR Tcommaaccent
ENCODING 538
SWIDTH 667 0
DWIDTH 10 0
BBX 9 16 0 -5
BITMAP
FF80
8880
8880
0800
0800
0800
0800
0800
0800
0800
3E00
0000
1800
0800
0800
1000
ENDCHAR
STARTCHAR tcommaaccent
ENCODING 539
SWIDTH 389 0
DWIDTH 5 0
BBX 5 14 0 -5
BITMAP
40
40
F0
40
40
40
40
48
30
00
30
10
10
20
ENDCHAR
STARTCHAR uni021E
ENCODING 542
SWIDTH 833 0
DWIDTH 12 0
BBX 11 15 0 0
BITMAP
1100
0A00
0400
0000
FBE0
2080
2080
2080
2080
3F80
2080
2080
2080
2080
FBE0
ENDCHAR
STARTCHAR uni021F
ENCODING 543
SWIDTH 611 0
DWIDTH 9 0
BBX 8 15 0 0
BITMAP
88
50
20
00
C0
40
40
40
5C
66
42
42
42
42
E7
ENDCHAR
STARTCHAR uni0226
ENCODING 550
SWIDTH 722 0
DWIDTH 10 0
BBX 11 14 -1 0
BITMAP
0400
0400
0000
0400
0400
0A00
0A00
0A00
1100
1100
3F80
2080
2080
FBE0
ENDCHAR
STARTCHAR uni0227
ENCODING 551
SWIDTH 556 0
DWIDTH 8 0
BBX 7 10 0 0
BITMAP
10
10
00
38
4C
04
3C
C4
8C
76
ENDCHAR
STARTCHAR uni0228
ENCODING 552
SWIDTH 722 0
DWIDTH 10 0
BBX 9 14 0 -3
BITMAP
FF80
2080
2080
2400
2400
3C00
2400
2400
2080
2080
FF80
0800
0400
1800
ENDCHAR
STARTCHAR uni0229
ENCODING 553
SWIDTH 500 0
DWIDTH 7 0
BBX 6 10 0 -3
BITMAP
78
CC
84
FC
80
C4
78
20
10
60
ENDCHAR
STARTCHAR uni022A
ENCODING 554
SWIDTH 778 0
DWIDTH 11 0
BBX 10 16 0 0
BITMAP
1F00
0000
1200
1200
0000
1E00
6180
4080
C0C0
8040
8040
8040
C0C0
4080
6180
1E00
ENDCHAR
STARTCHAR uni022B
ENCODING 555
SWIDTH 500 0
DWIDTH 7 0
BBX 6 12 0 0
BITMAP
7C
00
48
48
00
78
CC
84
84
84
CC
78
ENDCHAR
STARTCHAR uni022C
ENCODING 556
SWIDTH 778 0
DWIDTH 11 0
BBX 10 16 0 0
BITMAP
1F00
0000
1900
2600
0000
1E00
6180
4080
C0C0
8040
8040
8040
C0C0
4080
6180
1E00
ENDCHAR
STARTCHAR uni022D
ENCODING 557
SWIDTH 500 0
DWIDTH 7 0
BBX 6 12 0 0
BITMAP
7C
00
64
98
00
78
CC
84
84
84
CC
78
ENDCHAR
STARTCHAR uni022E
ENCODING 558
SWIDTH 778 0
DWIDTH 11 0
BBX 10 14 0 0
BITMAP
0400
0400
0000
1E00
6180
4080
C0C0
8040
8040
8040
C0C0
4080
6180
1E00
ENDCHAR
STARTCHAR uni022F
ENCODING 559
SWIDTH 500 0
DWIDTH 7 0
BBX 6 10 0 0
BITMAP
10
10
00
78
CC
84
84
84
CC
78
ENDCHAR
STARTCHAR uni0230
ENCODING 560
SWIDTH 778 0
DWIDTH 11 0
BBX 10 16 0 0
BITMAP
1F00
0000
0400
0400
0000
1E00
6180
4080
C0C0
8040
8040
8040
C0C0
4080
6180
1E00
ENDCHAR
STARTCHAR uni0231
ENCODING 561
SWIDTH 500 0
DWIDTH 7 0
BBX 6 12 0 0
BITMAP
7C
00
10
10
00
78
CC
84
84
84
CC
78
ENDCHAR
STARTCHAR uni0232
ENCODING 562
SWIDTH 704 0
DWIDTH 10 0
BBX 11 13 -1 0
BITMAP
1F00
0000
FBE0
6080
3100
1100
1A00
0A00
0400
0400
0400
0400
1F00
ENDCHAR
STARTCHAR uni0233
ENCODING 563
SWIDTH 537 0
DWIDTH 8 0
BBX 7 12 0 -3
BITMAP
7C
00
EE
44
44
28
28
10
10
20
A0
C0
ENDCHAR
STARTCHAR uni0250
ENCODING 592
SWIDTH 556 0
DWIDTH 8 0
BBX 7 7 0 0
BITMAP
DC
62
46
78
40
64
38
ENDCHAR
STARTCHAR uni0254
ENCODING 596
SWIDTH 444 0
DWIDTH 7 0
BBX 6 7 0 0
BITMAP
78
CC
04
04
04
8C
78
ENDCHAR
STARTCHAR uni0258
ENCODING 600
SWIDTH 500 0
DWIDTH 7 0
BBX 6 7 0 0
BITMAP
78
CC
84
FC
04
8C
78
ENDCHAR
STARTCHAR uni0259
ENCODING 601
SWIDTH 500 0
DWIDTH 7 0
BBX 6 7 0 0
BITMAP
78
8C
04
FC
84
CC
78
ENDCHAR
STARTCHAR uni025F
ENCODING 607
SWIDTH 333 0
DWIDTH 5 0
BBX 5 11 0 -4
BITMAP
38
10
10
10
10
10
78
10
10
90
E0
ENDCHAR
STARTCHAR uni0265
ENCODING 613
SWIDTH 611 0
DWIDTH 9 0
BBX 8 11 0 -4
BITMAP
E7
42
42
42
42
66
3A
02
02
02
03
ENDCHAR
STARTCHAR uni0275
ENCODING 629
SWIDTH 500 0
DWIDTH 7 0
BBX 6 7 0 0
BITMAP
78
CC
84
FC
84
CC
78
ENDCHAR
STARTCHAR uni0279
ENCODING 633
SWIDTH 444 0
DWIDTH 7 0
BBX 6 7 0 0
BITMAP
1C
08
08
08
08
98
EC
ENDCHAR
STARTCHAR uni0287
ENCODING 647
SWIDTH 389 0
DWIDTH 5 0
BBX 5 9 0 0
BITMAP
60
90
10
10
10
10
78
10
10
ENDCHAR
STARTCHAR uni0288
ENCODING 648
SWIDTH 389 0
DWIDTH 5 0
BBX 4 12 0 -3
BITMAP
40
40
F0
40
40
40
40
40
40
40
50
30
ENDCHAR
STARTCHAR uni0289
ENCODING 649
SWIDTH 611 0
DWIDTH 9 0
BBX 8 7 0 0
BITMAP
E7
42
42
FF
42
66
3B
ENDCHAR
STARTCHAR uni028C
ENCODING 652
SWIDTH 537 0
DWIDTH 8 0
BBX 7 7 0 0
BITMAP
10
10
28
28
44
44
EE
ENDCHAR
STARTCHAR uni028D
ENCODING 653
SWIDTH 778 0
DWIDTH 12 0
BBX 11 7 0 0
BITMAP
1100
1100
2A80
2A80
4440
4440
EEE0
ENDCHAR
STARTCHAR uni028E
ENCODING 654
SWIDTH 537 0
DWIDTH 8 0
BBX 7 10 0 0
BITMAP
06
0A
08
10
10
28
28
44
44
EE
ENDCHAR
STARTCHAR uni029E
ENCODING 670
SWIDTH 593 0
DWIDTH 9 0
BBX 8 11 0 -4
BITMAP
F7
62
32
1E
0A
12
7A
02
02
02
03
ENDCHAR
STARTCHAR uni02BB
ENCODING 699
SWIDTH 204 0
DWIDTH 4 0
BBX 2 4 1 7
BITMAP
40
80
80
C0
ENDCHAR
STARTCHAR afii57929
ENCODING 700
SWIDTH 204 0
DWIDTH 4 0
BBX 2 4 1 7
BITMAP
C0
40
40
80
ENDCHAR
STARTCHAR afii64937
ENCODING 701
SWIDTH 204 0
DWIDTH 4 0
BBX 2 4 1 7
BITMAP
C0
80
80
40
ENDCHAR
STARTCHAR circumflex
ENCODING 710
SWIDTH 333 0
DWIDTH 7 0
BBX 5 3 1 8
BITMAP
20
50
88
ENDCHAR
STARTCHAR caron
ENCODING 711
SWIDTH 333 0
DWIDTH 7 0
BBX 5 3 1 8
BITMAP
88
50
20
ENDCHAR
STARTCHAR uni02C8
ENCODING 712
SWIDTH 204 0
DWIDTH 3 0
BBX 1 4 1 7
BITMAP
80
80
80
80
ENDCHAR
STARTCHAR macron
ENCODING 713
SWIDTH 333 0
DWIDTH 5 0
BBX 5 1 0 8
BITMAP
F8
ENDCHAR
STARTCHAR uni02CA
ENCODING 714
SWIDTH 333 0
DWIDTH 5 0
BBX 3 3 1 8
BITMAP
20
40
80
ENDCHAR
STARTCHAR uni02CB
ENCODING 715
SWIDTH 333 0
DWIDTH 5 0
BBX 3 3 1 8
BITMAP
80
40
20
ENDCHAR
STARTCHAR uni02CD
ENCODING 717
SWIDTH 333 0
DWIDTH 5 0
BBX 5 1 0 -2
BITMAP
F8
ENDCHAR
STARTCHAR uni02CE
ENCODING 718
SWIDTH 333 0
DWIDTH 5 0
BBX 3 3 1 -4
BITMAP
80
40
20
ENDCHAR
STARTCHAR uni02CF
ENCODING 719
SWIDTH 333 0
DWIDTH 5 0
BBX 3 3 1 -4
BITMAP
20
40
80
ENDCHAR
STARTCHAR breve
ENCODING 728
SWIDTH 333 0
DWIDTH 6 0
BBX 4 2 1 8
BITMAP
90
60
ENDCHAR
STARTCHAR dotaccent
ENCODING 729
SWIDTH 333 0
DWIDTH 3 0
BBX 1 2 1 8
BITMAP
80
80
ENDCHAR
STARTCHAR ring
ENCODING 730
SWIDTH 333 0
DWIDTH 6 0
BBX 4 3 1 8
BITMAP
60
90
60
ENDCHAR
STARTCHAR ogonek
ENCODING 731
SWIDTH 333 0
DWIDTH 5 0
BBX 3 3 1 -3
BITMAP
40
80
E0
ENDCHAR
STARTCHAR tilde
ENCODING 732
SWIDTH 333 0
DWIDTH 8 0
BBX 6 2 1 8
BITMAP
64
98
ENDCHAR
STARTCHAR hungarumlaut
ENCODING 733
SWIDTH 333 0
DWIDTH 8 0
BBX 6 3 1 8
BITMAP
24
48
90
ENDCHAR
STARTCHAR uni02EE
ENCODING 750
SWIDTH 389 0
DWIDTH 7 0
BBX 5 4 1 7
BITMAP
D8
48
48
90
ENDCHAR
STARTCHAR uni037E
ENCODING 894
SWIDTH 278 0
DWIDTH 4 0
BBX 2 9 0 -2
BITMAP
40
40
00
00
00
C0
40
40
80
ENDCHAR
STARTCHAR tonos
ENCODING 900
SWIDTH 333 0
DWIDTH 5 0
BBX 3 3 1 8
BITMAP
20
40
80
ENDCHAR
STARTCHAR dieresistonos
ENCODING 901
SWIDTH 333 0
DWIDTH 6 0
BBX 4 6 1 8
BITMAP
10
20
40
00
90
90
ENDCHAR
STARTCHAR anoteleia
ENCODING 903
SWIDTH 278 0
DWIDTH 4 0
BBX 2 2 1 3
BITMAP
C0
C0
ENDCHAR
STARTCHAR mu
ENCODING 956
SWIDTH 611 0
DWIDTH 9 0
BBX 8 10 0 -3
BITMAP
E7
42
42
42
42
66
7B
40
60
40
ENDCHAR
STARTCHAR uni1E00
ENCODING 7680
SWIDTH 722 0
DWIDTH 10 0
BBX 11 15 -1 -4
BITMAP
0400
0400
0A00
0A00
0A00
1100
1100
3F80
2080
2080
FBE0
0000
0600
0900
0600
ENDCHAR
STARTCHAR uni1E01
ENCODING 7681
SWIDTH 556 0
DWIDTH 8 0
BBX 7 11 0 -4
BITMAP
38
4C
04
3C
C4
8C
76
00
18
24
18
ENDCHAR
STARTCHAR uni1E02
ENCODING 7682
SWIDTH 722 0
DWIDTH 10 0
BBX 9 14 0 0
BITMAP
0800
0800
0000
FE00
2300
2100
2100
2200
3F00
2180
2080
2080
2180
FF00
ENDCHAR
STARTCHAR uni1E03
ENCODING 7683
SWIDTH 556 0
DWIDTH 7 0
BBX 7 14 -1 0
BITMAP
20
20
00
C0
40
40
40
5C
66
42
42
42
66
5C
ENDCHAR
STARTCHAR uni1E04
ENCODING 7684
SWIDTH 722 0
DWIDTH 10 0
BBX 9 14 0 -3
BITMAP
FE00
2300
2100
2100
2200
3F00
2180
2080
2080
2180
FF00
0000
0800
0800
ENDCHAR
STARTCHAR uni1E05
ENCODING 7685
SWIDTH 556 0
DWIDTH 7 0
BBX 7 14 -1 -3
BITMAP
C0
40
40
40
5C
66
42
42
42
66
5C
00
10
10
ENDCHAR
STARTCHAR uni1E06
ENCODING 7686
SWIDTH 722 0
DWIDTH 10 0
BBX 9 13 0 -2
BITMAP
FE00
2300
2100
2100
2200
3F00
2180
2080
2080
2180
FF00
0000
3E00
ENDCHAR
STARTCHAR uni1E07
ENCODING 7687
SWIDTH 556 0
DWIDTH 7 0
BBX 7 13 -1 -2
BITMAP
C0
40
40
40
5C
66
42
42
42
66
5C
00
7C
ENDCHAR
STARTCHAR uni1E08
ENCODING 7688
SWIDTH 722 0
DWIDTH 11 0
BBX 9 18 1 -3
BITMAP
0200
0400
0800
0000
1E80
6180
4080
C080
8000
8000
8000
C080
4080
6100
1E00
0800
0400
1800
ENDCHAR
STARTCHAR uni1E09
ENCODING 7689
SWIDTH 444 0
DWIDTH 7 0
BBX 6 14 0 -3
BITMAP
08
10
20
00
78
CC
80
80
80
C4
78
20
10
60
ENDCHAR
STARTCHAR uni1E0A
ENCODING 7690
SWIDTH 778 0
DWIDTH 11 0
BBX 10 14 0 0
BITMAP
0800
0800
0000
FF00
2080
20C0
2040
2040
2040
2040
2040
20C0
2080
FF00
ENDCHAR
STARTCHAR uni1E0B
ENCODING 7691
SWIDTH 574 0
DWIDTH 8 0
BBX 7 14 0 0
BITMAP
08
08
00
0C
04
04
04
74
CC
84
84
84
CC
76
ENDCHAR
STARTCHAR uni1E0C
ENCODING 7692
SWIDTH 778 0
DWIDTH 11 0
BBX 10 14 0 -3
BITMAP
FF00
2080
20C0
2040
2040
2040
2040
2040
20C0
2080
FF00
0000
0800
0800
ENDCHAR
STARTCHAR uni1E0D
ENCODING 7693
SWIDTH 574 0
DWIDTH 8 0
BBX 7 14 0 -3
BITMAP
0C
04
04
04
74
CC
84
84
84
CC
76
00
10
10
ENDCHAR
STARTCHAR uni1E0E
ENCODING 7694
SWIDTH 778 0
DWIDTH 11 0
BBX 10 13 0 -2
BITMAP
FF00
2080
20C0
2040
2040
2040
2040
2040
20C0
2080
FF00
0000
3E00
ENDCHAR
STARTCHAR uni1E0F
ENCODING 7695
SWIDTH 574 0
DWIDTH 8 0
BBX 7 13 0 -2
BITMAP
0C
04
04
04
74
CC
84
84
84
CC
76
00
7C
ENDCHAR
STARTCHAR uni1E10
ENCODING 7696
SWIDTH 778 0
DWIDTH 11 0
BBX 10 14 0 -3
BITMAP
FF00
2080
20C0
2040
2040
2040
2040
2040
20C0
2080
FF00
0800
0400
1800
ENDCHAR
STARTCHAR uni1E11
ENCODING 7697
SWIDTH 574 0
DWIDTH 8 0
BBX 7 14 0 -3
BITMAP
0C
04
04
04
74
CC
84
84
84
CC
76
10
08
30
ENDCHAR
STARTCHAR uni1E12
ENCODING 7698
SWIDTH 778 0
DWIDTH 11 0
BBX 10 15 0 -4
BITMAP
FF00
2080
20C0
2040
2040
2040
2040
2040
20C0
2080
FF00
0000
0800
1400
2200
ENDCHAR
STARTCHAR uni1E13
ENCODING 7699
SWIDTH 574 0
DWIDTH 8 0
BBX 7 15 0 -4
BITMAP
0C
04
04
04
74
CC
84
84
84
CC
76
00
10
28
44
ENDCHAR
STARTCHAR uni1E14
ENCODING 7700
SWIDTH 722 0
DWIDTH 10 0
BBX 9 17 0 0
BITMAP
2000
1000
0800
0000
3E00
0000
FF80
2080
2080
2400
2400
3C00
2400
2400
2080
2080
FF80
ENDCHAR
STARTCHAR uni1E15
ENCODING 7701
SWIDTH 500 0
DWIDTH 7 0
BBX 6 13 0 0
BITMAP
40
20
10
00
7C
00
78
CC
84
FC
80
C4
78
ENDCHAR
STARTCHAR uni1E16
ENCODING 7702
SWIDTH 722 0
DWIDTH 10 0
BBX 9 17 0 0
BITMAP
0200
0400
0800
0000
3E00
0000
FF80
2080
2080
2400
2400
3C00
2400
2400
2080
2080
FF80
ENDCHAR
STARTCHAR uni1E17
ENCODING 7703
SWIDTH 500 0
DWIDTH 7 0
BBX 6 13 0 0
BITMAP
08
10
20
00
7C
00
78
CC
84
FC
80
C4
78
ENDCHAR
STARTCHAR uni1E18
ENCODING 7704
SWIDTH 722 0
DWIDTH 10 0
BBX 9 15 0 -4
BITMAP
FF80
2080
2080
2400
2400
3C00
2400
2400
2080
2080
FF80
0000
0800
1400
2200
ENDCHAR
STARTCHAR uni1E19
ENCODING 7705
SWIDTH 500 0
DWIDTH 7 0
BBX 6 11 0 -4
BITMAP
78
CC
84
FC
80
C4
78
00
20
50
88
ENDCHAR
STARTCHAR uni1E1A
ENCODING 7706
SWIDTH 722 0
DWIDTH 10 0
BBX 9 14 0 -3
BITMAP
FF80
2080
2080
2400
2400
3C00
2400
2400
2080
2080
FF80
0000
1900
2600
ENDCHAR
STARTCHAR uni1E1B
ENCODING 7707
SWIDTH 500 0
DWIDTH 7 0
BBX 6 10 0 -3
BITMAP
78
CC
84
FC
80
C4
78
00
64
98
ENDCHAR
STARTCHAR uni1E1C
ENCODING 7708
SWIDTH 722 0
DWIDTH 10 0
BBX 9 17 0 -3
BITMAP
1200
0C00
0000
FF80
2080
2080
2400
2400
3C00
2400
2400
2080
2080
FF80
0800
0400
1800
ENDCHAR
STARTCHAR uni1E1D
ENCODING 7709
SWIDTH 500 0
DWIDTH 7 0
BBX 6 13 0 -3
BITMAP
48
30
00
78
CC
84
FC
80
C4
78
20
10
60
ENDCHAR
STARTCHAR uni1E1E
ENCODING 7710
SWIDTH 667 0
DWIDTH 10 0
BBX 9 14 0 0
BITMAP
0800
0800
0000
FF80
2080
2080
2400
2400
3C00
2400
2400
2000
2000
F800
ENDCHAR
STARTCHAR uni1E1F
ENCODING 7711
SWIDTH 333 0
DWIDTH 5 0
BBX 5 14 0 0
BITMAP
20
20
00
38
48
40
40
F0
40
40
40
40
40
E0
ENDCHAR
STARTCHAR uni1E20
ENCODING 7712
SWIDTH 778 0
DWIDTH 11 0
BBX 10 13 0 0
BITMAP
1F00
0000
1E80
6180
4080
C080
8000
8000
87C0
C080
4080
6180
1E80
ENDCHAR
STARTCHAR uni1E21
ENCODING 7713
SWIDTH 537 0
DWIDTH 8 0
BBX 7 12 0 -3
BITMAP
7C
00
76
CC
84
CC
78
80
7C
C6
82
7C
ENDCHAR
STARTCHAR uni1E22
ENCODING 7714
SWIDTH 833 0
DWIDTH 12 0
BBX 11 14 0 0
BITMAP
0400
0400
0000
FBE0
2080
2080
2080
2080
3F80
2080
2080
2080
2080
FBE0
ENDCHAR
STARTCHAR uni1E23
ENCODING 7715
SWIDTH 611 0
DWIDTH 9 0
BBX 8 14 0 0
BITMAP
20
20
00
C0
40
40
40
5C
66
42
42
42
42
E7
ENDCHAR
STARTCHAR uni1E24
ENCODING 7716
SWIDTH 833 0
DWIDTH 12 0
BBX 11 14 0 -3
BITMAP
FBE0
2080
2080
2080
2080
3F80
2080
2080
2080
2080
FBE0
0000
0400
0400
ENDCHAR
STARTCHAR uni1E25
ENCODING 7717
SWIDTH 611 0
DWIDTH 9 0
BBX 8 14 0 -3
BITMAP
C0
40
40
40
5C
66
42
42
42
42
E7
00
08
08
ENDCHAR
STARTCHAR uni1E26
ENCODING 7718
SWIDTH 833 0
DWIDTH 12 0
BBX 11 14 0 0
BITMAP
0900
0900
0000
FBE0
2080
2080
2080
2080
3F80
2080
2080
2080
2080
FBE0
ENDCHAR
STARTCHAR uni1E27
ENCODING 7719
SWIDTH 611 0
DWIDTH 9 0
BBX 8 14 0 0
BITMAP
90
90
00
C0
40
40
40
5C
66
42
42
42
42
E7
ENDCHAR
STARTCHAR uni1E28
ENCODING 7720
SWIDTH 833 0
DWIDTH 12 0
BBX 11 14 0 -3
BITMAP
FBE0
2080
2080
2080
2080
3F80
2080
2080
2080
2080
FFE0
0400
0200
0C00
ENDCHAR
STARTCHAR uni1E29
ENCODING 7721
SWIDTH 611 0
DWIDTH 9 0
BBX 8 14 0 -3
BITMAP
C0
40
40
40
5C
66
42
42
42
42
EF
08
04
18
ENDCHAR
STARTCHAR uni1E2A
ENCODING 7722
SWIDTH 833 0
DWIDTH 12 0
BBX 11 14 0 -3
BITMAP
FBE0
2080
2080
2080
2080
3F80
2080
2080
2080
2080
FBE0
0000
0900
0600
ENDCHAR
STARTCHAR uni1E2B
ENCODING 7723
SWIDTH 611 0
DWIDTH 9 0
BBX 8 14 0 -3
BITMAP
C0
40
40
40
5C
66
42
42
42
42
E7
00
24
18
ENDCHAR
STARTCHAR uni1E2C
ENCODING 7724
SWIDTH 407 0
DWIDTH 6 0
BBX 6 14 -1 -3
BITMAP
7C
10
10
10
10
10
10
10
10
10
7C
00
64
98
ENDCHAR
STARTCHAR uni1E2D
ENCODING 7725
SWIDTH 315 0
DWIDTH 4 0
BBX 6 13 -2 -3
BITMAP
10
10
00
30
10
10
10
10
10
38
00
64
98
ENDCHAR
STARTCHAR uni1E2E
ENCODING 7726
SWIDTH 407 0
DWIDTH 6 0
BBX 5 18 0 0
BITMAP
08
10
20
00
50
50
00
F8
20
20
20
20
20
20
20
20
20
F8
ENDCHAR
STARTCHAR uni1E2F
ENCODING 7727
SWIDTH 315 0
DWIDTH 4 0
BBX 4 14 -1 0
BITMAP
10
20
40
00
90
90
00
60
20
20
20
20
20
70
ENDCHAR
STARTCHAR uni1E30
ENCODING 7728
SWIDTH 778 0
DWIDTH 11 0
BBX 11 15 0 0
BITMAP
0200
0400
0800
0000
FBC0
2100
2200
2400
2800
3800
3400
2600
2300
2180
FBE0
ENDCHAR
STARTCHAR uni1E31
ENCODING 7729
SWIDTH 593 0
DWIDTH 9 0
BBX 8 15 0 0
BITMAP
10
20
40
00
C0
40
40
40
5E
48
50
78
4C
46
EF
ENDCHAR
STARTCHAR uni1E32
ENCODING 7730
SWIDTH 778 0
DWIDTH 11 0
BBX 11 14 0 -3
BITMAP
FBC0
2100
2200
2400
2800
3800
3400
2600
2300
2180
FBE0
0000
0400
0400
ENDCHAR
STARTCHAR uni1E33
ENCODING 7731
SWIDTH 593 0
DWIDTH 9 0
BBX 8 14 0 -3
BITMAP
C0
40
40
40
5E
48
50
78
4C
46
EF
00
08
08
ENDCHAR
STARTCHAR uni1E34
ENCODING 7732
SWIDTH 778 0
DWIDTH 11 0
BBX 11 13 0 -2
BITMAP
FBC0
2100
2200
2400
2800
3800
3400
2600
2300
2180
FBE0
0000
1F00
ENDCHAR
STARTCHAR uni1E35
ENCODING 7733
SWIDTH 593 0
DWIDTH 9 0
BBX 8 13 0 -2
BITMAP
C0
40
40
40
5E
48
50
78
4C
46
EF
00
3E
ENDCHAR
STARTCHAR uni1E36
ENCODING 7734
SWIDTH 667 0
DWIDTH 10 0
BBX 9 14 0 -3
BITMAP
F800
2000
2000
2000
2000
2000
2000
2000
2080
2080
FF80
0000
0800
0800
ENDCHAR
STARTCHAR uni1E37
ENCODING 7735
SWIDTH 315 0
DWIDTH 4 0
BBX 3 14 0 -3
BITMAP
C0
40
40
40
40
40
40
40
40
40
E0
00
40
40
ENDCHAR
STARTCHAR uni1E38
ENCODING 7736
SWIDTH 667 0
DWIDTH 10 0
BBX 9 16 0 -3
BITMAP
7C00
0000
F800
2000
2000
2000
2000
2000
2000
2000
2080
2080
FF80
0000
0800
0800
ENDCHAR
STARTCHAR uni1E39
ENCODING 7737
SWIDTH 315 0
DWIDTH 4 0
BBX 5 16 -1 -3
BITMAP
F8
00
60
20
20
20
20
20
20
20
20
20
70
00
20
20
ENDCHAR
STARTCHAR uni1E3A
ENCODING 7738
SWIDTH 667 0
DWIDTH 10 0
BBX 9 13 0 -2
BITMAP
F800
2000
2000
2000
2000
2000
2000
2000
2080
2080
FF80
0000
3E00
ENDCHAR
STARTCHAR uni1E3B
ENCODING 7739
SWIDTH 315 0
DWIDTH 4 0
BBX 5 13 -1 -2
BITMAP
60
20
20
20
20
20
20
20
20
20
70
00
F8
ENDCHAR
STARTCHAR uni1E3C
ENCODING 7740
SWIDTH 667 0
DWIDTH 10 0
BBX 9 15 0 -4
BITMAP
F800
2000
2000
2000
2000
2000
2000
2000
2080
2080
FF80
0000
0800
1400
2200
ENDCHAR
STARTCHAR uni1E3D
ENCODING 7741
SWIDTH 315 0
DWIDTH 4 0
BBX 5 15 -1 -4
BITMAP
60
20
20
20
20
20
20
20
20
20
70
00
20
50
88
ENDCHAR
STARTCHAR uni1E3E
ENCODING 7742
SWIDTH 944 0
DWIDTH 16 0
BBX 15 15 0 0
BITMAP
0040
0080
0100
0000
F01E
3018
2828
2828
2C48
2448
2688
2288
2388
2108
F93E
ENDCHAR
STARTCHAR uni1E3F
ENCODING 7743
SWIDTH 889 0
DWIDTH 14 0
BBX 13 11 0 0
BITMAP
0100
0200
0400
0000
DCE0
6730
4210
4210
4210
4210
E738
ENDCHAR
STARTCHAR uni1E40
ENCODING 7744
SWIDTH 944 0
DWIDTH 16 0
BBX 15 14 0 0
BITMAP
0100
0100
0000
F01E
3018
2828
2828
2C48
2448
2688
2288
2388
2108
F93E
ENDCHAR
STARTCHAR uni1E41
ENCODING 7745
SWIDTH 889 0
DWIDTH 14 0
BBX 13 10 0 0
BITMAP
0200
0200
0000
DCE0
6730
4210
4210
4210
4210
E738
ENDCHAR
STARTCHAR uni1E42
ENCODING 7746
SWIDTH 944 0
DWIDTH 16 0
BBX 15 14 0 -3
BITMAP
F01E
3018
2828
2828
2C48
2448
2688
2288
2388
2108
F93E
0000
0100
0100
ENDCHAR
STARTCHAR uni1E43
ENCODING 7747
SWIDTH 889 0
DWIDTH 14 0
BBX 13 10 0 -3
BITMAP
DCE0
6730
4210
4210
4210
4210
E738
0000
0200
0200
ENDCHAR
STARTCHAR uni1E44
ENCODING 7748
SWIDTH 815 0
DWIDTH 13 0
BBX 12 14 0 0
BITMAP
0400
0400
0000
E1F0
3040
3840
2840
2C40
2640
2340
2140
21C0
20C0
F840
ENDCHAR
STARTCHAR uni1E45
ENCODING 7749
SWIDTH 611 0
DWIDTH 9 0
BBX 8 10 0 0
BITMAP
10
10
00
DC
66
42
42
42
42
E7
ENDCHAR
STARTCHAR uni1E46
ENCODING 7750
SWIDTH 815 0
DWIDTH 13 0
BBX 12 14 0 -3
BITMAP
E1F0
3040
3840
2840
2C40
2640
2340
2140
21C0
20C0
F840
0000
0400
0400
ENDCHAR
STARTCHAR uni1E47
ENCODING 7751
SWIDTH 611 0
DWIDTH 9 0
BBX 8 10 0 -3
BITMAP
DC
66
42
42
42
42
E7
00
08
08
ENDCHAR
STARTCHAR uni1E48
ENCODING 7752
SWIDTH 815 0
DWIDTH 13 0
BBX 12 13 0 -2
BITMAP
E1F0
3040
3840
2840
2C40
2640
2340
2140
21C0
20C0
F840
0000
1F00
ENDCHAR
STARTCHAR uni1E49
ENCODING 7753
SWIDTH 611 0
DWIDTH 9 0
BBX 8 9 0 -2
BITMAP
DC
66
42
42
42
42
E7
00
3E
ENDCHAR
STARTCHAR uni1E4A
ENCODING 7754
SWIDTH 815 0
DWIDTH 13 0
BBX 12 15 0 -4
BITMAP
E1F0
3040
3840
2840
2C40
2640
2340
2140
21C0
20C0
F840
0000
0400
0A00
1100
ENDCHAR
STARTCHAR uni1E4B
ENCODING 7755
SWIDTH 611 0
DWIDTH 9 0
BBX 8 11 0 -4
BITMAP
DC
66
42
42
42
42
E7
00
08
14
22
ENDCHAR
STARTCHAR uni1E4C
ENCODING 7756
SWIDTH 778 0
DWIDTH 11 0
BBX 10 18 0 0
BITMAP
0200
0400
0800
0000
1900
2600
0000
1E00
6180
4080
C0C0
8040
8040
8040
C0C0
4080
6180
1E00
ENDCHAR
STARTCHAR uni1E4D
ENCODING 7757
SWIDTH 500 0
DWIDTH 7 0
BBX 6 14 0 0
BITMAP
08
10
20
00
64
98
00
78
CC
84
84
84
CC
78
ENDCHAR
STARTCHAR uni1E4E
ENCODING 7758
SWIDTH 778 0
DWIDTH 11 0
BBX 10 17 0 0
BITMAP
1200
1200
0000
1900
2600
0000
1E00
6180
4080
C0C0
8040
8040
8040
C0C0
4080
6180
1E00
ENDCHAR
STARTCHAR uni1E4F
ENCODING 7759
SWIDTH 500 0
DWIDTH 7 0
BBX 6 13 0 0
BITMAP
48
48
00
64
98
00
78
CC
84
84
84
CC
78
ENDCHAR
STARTCHAR uni1E50
ENCODING 7760
SWIDTH 778 0
DWIDTH 11 0
BBX 10 17 0 0
BITMAP
1000
0800
0400
0000
1F00
0000
1E00
6180
4080
C0C0
8040
8040
8040
C0C0
4080
6180
1E00
ENDCHAR
STARTCHAR uni1E51
ENCODING 7761
SWIDTH 500 0
DWIDTH 7 0
BBX 6 13 0 0
BITMAP
40
20
10
00
7C
00
78
CC
84
84
84
CC
78
ENDCHAR
STARTCHAR uni1E52
ENCODING 7762
SWIDTH 778 0
DWIDTH 11 0
BBX 10 17 0 0
BITMAP
0200
0400
0800
0000
1F00
0000
1E00
6180
4080
C0C0
8040
8040
8040
C0C0
4080
6180
1E00
ENDCHAR
STARTCHAR uni1E53
ENCODING 7763
SWIDTH 500 0
DWIDTH 7 0
BBX 6 13 0 0
BITMAP
08
10
20
00
7C
00
78
CC
84
84
84
CC
78
ENDCHAR
STARTCHAR uni1E54
ENCODING 7764
SWIDTH 667 0
DWIDTH 10 0
BBX 9 15 0 0
BITMAP
0200
0400
0800
0000
FF00
2180
2080
2080
2100
3E00
2000
2000
2000
2000
F800
ENDCHAR
STARTCHAR uni1E55
ENCODING 7765
SWIDTH 574 0
DWIDTH 8 0
BBX 7 14 0 -3
BITMAP
04
08
10
00
DC
66
42
42
42
66
5C
40
40
E0
ENDCHAR
STARTCHAR uni1E56
ENCODING 7766
SWIDTH 667 0
DWIDTH 10 0
BBX 9 14 0 0
BITMAP
0800
0800
0000
FF00
2180
2080
2080
2100
3E00
2000
2000
2000
2000
F800
ENDCHAR
STARTCHAR uni1E57
ENCODING 7767
SWIDTH 574 0
DWIDTH 8 0
BBX 7 13 0 -3
BITMAP
10
10
00
DC
66
42
42
42
66
5C
40
40
E0
ENDCHAR
STARTCHAR uni1E58
ENCODING 7768
SWIDTH 722 0
DWIDTH 11 0
BBX 11 14 0 0
BITMAP
0800
0800
0000
FF00
2180
2080
2080
2100
3E00
2300
2100
2120
21A0
F8C0
ENDCHAR
STARTCHAR uni1E59
ENCODING 7769
SWIDTH 444 0
DWIDTH 7 0
BBX 6 10 0 0
BITMAP
10
10
00
DC
64
40
40
40
40
E0
ENDCHAR
STARTCHAR uni1E5A
ENCODING 7770
SWIDTH 722 0
DWIDTH 11 0
BBX 11 14 0 -3
BITMAP
FF00
2180
2080
2080
2100
3E00
2300
2100
2120
21A0
F8C0
0000
0400
0400
ENDCHAR
STARTCHAR uni1E5B
ENCODING 7771
SWIDTH 444 0
DWIDTH 7 0
BBX 6 10 0 -3
BITMAP
DC
64
40
40
40
40
E0
00
20
20
ENDCHAR
STARTCHAR uni1E5C
ENCODING 7772
SWIDTH 722 0
DWIDTH 11 0
BBX 11 16 0 -3
BITMAP
1F00
0000
FF00
2180
2080
2080
2100
3E00
2300
2100
2120
21A0
F8C0
0000
0400
0400
ENDCHAR
STARTCHAR uni1E5D
ENCODING 7773
SWIDTH 444 0
DWIDTH 7 0
BBX 6 12 0 -3
BITMAP
F8
00
DC
64
40
40
40
40
E0
00
20
20
ENDCHAR
STARTCHAR uni1E5E
ENCODING 7774
SWIDTH 722 0
DWIDTH 11 0
BBX 11 13 0 -2
BITMAP
FF00
2180
2080
2080
2100
3E00
2300
2100
2120
21A0
F8C0
0000
1F00
ENDCHAR
STARTCHAR uni1E5F
ENCODING 7775
SWIDTH 444 0
DWIDTH 7 0
BBX 6 9 0 -2
BITMAP
DC
64
40
40
40
40
E0
00
F8
ENDCHAR
STARTCHAR uni1E60
ENCODING 7776
SWIDTH 630 0
DWIDTH 8 0
BBX 7 14 0 0
BITMAP
10
10
00
7A
C6
82
82
E0
38
0E
82
82
C6
BC
ENDCHAR
STARTCHAR uni1E61
ENCODING 7777
SWIDTH 463 0
DWIDTH 6 0
BBX 5 10 0 0
BITMAP
20
20
00
78
88
C0
70
18
88
F0
ENDCHAR
STARTCHAR uni1E62
ENCODING 7778
SWIDTH 630 0
DWIDTH 8 0
BBX 7 14 0 -3
BITMAP
7A
C6
82
82
E0
38
0E
82
82
C6
BC
00
10
10
ENDCHAR
STARTCHAR uni1E63
ENCODING 7779
SWIDTH 463 0
DWIDTH 6 0
BBX 5 10 0 -3
BITMAP
78
88
C0
70
18
88
F0
00
20
20
ENDCHAR
STARTCHAR uni1E64
ENCODING 7780
SWIDTH 630 0
DWIDTH 8 0
BBX 7 18 0 0
BITMAP
08
08
00
04
08
10
00
7A
C6
82
82
E0
38
0E
82
82
C6
BC
ENDCHAR
STARTCHAR uni1E65
ENCODING 7781
SWIDTH 463 0
DWIDTH 6 0
BBX 5 14 0 0
BITMAP
10
10
00
08
10
20
00
78
88
C0
70
18
88
F0
ENDCHAR
STARTCHAR uni1E66
ENCODING 7782
SWIDTH 630 0
DWIDTH 8 0
BBX 7 14 0 0
BITMAP
10
10
00
44
28
10
00
7A
C6
80
7C
02
C6
BC
ENDCHAR
STARTCHAR uni1E67
ENCODING 7783
SWIDTH 463 0
DWIDTH 6 0
BBX 5 14 0 0
BITMAP
20
20
00
88
50
20
00
78
88
C0
70
18
88
F0
ENDCHAR
STARTCHAR uni1E68
ENCODING 7784
SWIDTH 630 0
DWIDTH 8 0
BBX 7 17 0 -3
BITMAP
10
10
00
7A
C6
82
82
E0
38
0E
82
82
C6
BC
00
10
10
ENDCHAR
STARTCHAR uni1E69
ENCODING 7785
SWIDTH 463 0
DWIDTH 6 0
BBX 5 13 0 -3
BITMAP
20
20
00
78
88
C0
70
18
88
F0
00
20
20
ENDCHAR
STARTCHAR uni1E6A
ENCODING 7786
SWIDTH 667 0
DWIDTH 10 0
BBX 9 14 0 0
BITMAP
0800
0800
0000
FF80
8880
8880
0800
0800
0800
0800
0800
0800
0800
3E00
ENDCHAR
STARTCHAR uni1E6B
ENCODING 7787
SWIDTH 389 0
DWIDTH 5 0
BBX 5 12 0 0
BITMAP
20
20
00
40
40
F0
40
40
40
40
48
30
ENDCHAR
STARTCHAR uni1E6C
ENCODING 7788
SWIDTH 667 0
DWIDTH 10 0
BBX 9 14 0 -3
BITMAP
FF80
8880
8880
0800
0800
0800
0800
0800
0800
0800
3E00
0000
0800
0800
ENDCHAR
STARTCHAR uni1E6D
ENCODING 7789
SWIDTH 389 0
DWIDTH 5 0
BBX 5 12 0 -3
BITMAP
40
40
F0
40
40
40
40
48
30
00
20
20
ENDCHAR
STARTCHAR uni1E6E
ENCODING 7790
SWIDTH 667 0
DWIDTH 10 0
BBX 9 13 0 -2
BITMAP
FF80
8880
8880
0800
0800
0800
0800
0800
0800
0800
3E00
0000
3E00
ENDCHAR
STARTCHAR uni1E6F
ENCODING 7791
SWIDTH 389 0
DWIDTH 5 0
BBX 5 11 0 -2
BITMAP
40
40
F0
40
40
40
40
48
30
00
F8
ENDCHAR
STARTCHAR uni1E70
ENCODING 7792
SWIDTH 667 0
DWIDTH 10 0
BBX 9 15 0 -4
BITMAP
FF80
8880
8880
0800
0800
0800
0800
0800
0800
0800
3E00
0000
0800
1400
2200
ENDCHAR
STARTCHAR uni1E71
ENCODING 7793
SWIDTH 389 0
DWIDTH 5 0
BBX 5 13 0 -4
BITMAP
40
40
F0
40
40
40
40
48
30
00
20
50
88
ENDCHAR
STARTCHAR uni1E72
ENCODING 7794
SWIDTH 815 0
DWIDTH 13 0
BBX 12 14 0 -3
BITMAP
F9F0
2040
2040
2040
2040
2040
2040
2040
2040
3080
1F00
0000
0900
0900
ENDCHAR
STARTCHAR uni1E73
ENCODING 7795
SWIDTH 611 0
DWIDTH 9 0
BBX 8 10 0 -3
BITMAP
E7
42
42
42
42
66
3B
00
24
24
ENDCHAR
STARTCHAR uni1E74
ENCODING 7796
SWIDTH 815 0
DWIDTH 13 0
BBX 12 14 0 -3
BITMAP
F9F0
2040
2040
2040
2040
2040
2040
2040
2040
3080
1F00
0000
1900
2600
ENDCHAR
STARTCHAR uni1E75
ENCODING 7797
SWIDTH 611 0
DWIDTH 9 0
BBX 8 10 0 -3
BITMAP
E7
42
42
42
42
66
3B
00
32
4C
ENDCHAR
STARTCHAR uni1E76
ENCODING 7798
SWIDTH 815 0
DWIDTH 13 0
BBX 12 15 0 -4
BITMAP
F9F0
2040
2040
2040
2040
2040
2040
2040
2040
3080
1F00
0000
0400
0A00
1100
ENDCHAR
STARTCHAR uni1E77
ENCODING 7799
SWIDTH 611 0
DWIDTH 9 0
BBX 8 11 0 -4
BITMAP
E7
42
42
42
42
66
3B
00
08
14
22
ENDCHAR
STARTCHAR uni1E78
ENCODING 7800
SWIDTH 815 0
DWIDTH 13 0
BBX 12 18 0 0
BITMAP
0100
0200
0400
0000
0C80
1300
0000
F9F0
2040
2040
2040
2040
2040
2040
2040
2040
3080
1F00
ENDCHAR
STARTCHAR uni1E79
ENCODING 7801
SWIDTH 611 0
DWIDTH 9 0
BBX 8 14 0 0
BITMAP
04
08
10
00
32
4C
00
E7
42
42
42
42
66
3B
ENDCHAR
STARTCHAR uni1E7A
ENCODING 7802
SWIDTH 815 0
DWIDTH 13 0
BBX 12 16 0 0
BITMAP
0900
0900
0000
0F80
0000
F9F0
2040
2040
2040
2040
2040
2040
2040
2040
3080
1F00
ENDCHAR
STARTCHAR uni1E7B
ENCODING 7803
SWIDTH 611 0
DWIDTH 9 0
BBX 8 12 0 0
BITMAP
24
24
00
3E
00
E7
42
42
42
42
66
3B
ENDCHAR
STARTCHAR uni1E7C
ENCODING 7804
SWIDTH 722 0
DWIDTH 10 0
BBX 11 14 -1 0
BITMAP
0C80
1300
0000
FBE0
2080
3080
1100
1100
1900
0A00
0A00
0A00
0400
0400
ENDCHAR
STARTCHAR uni1E7D
ENCODING 7805
SWIDTH 537 0
DWIDTH 8 0
BBX 7 10 0 0
BITMAP
32
4C
00
EE
44
44
28
28
10
10
ENDCHAR
STARTCHAR uni1E7E
ENCODING 7806
SWIDTH 722 0
DWIDTH 10 0
BBX 11 14 -1 -3
BITMAP
FBE0
2080
3080
1100
1100
1900
0A00
0A00
0A00
0400
0400
0000
0400
0400
ENDCHAR
STARTCHAR uni1E7F
ENCODING 7807
SWIDTH 537 0
DWIDTH 8 0
BBX 7 10 0 -3
BITMAP
EE
44
44
28
28
10
10
00
10
10
ENDCHAR
STARTCHAR Wgrave
ENCODING 7808
SWIDTH 981 0
DWIDTH 16 0
BBX 17 15 -1 0
BITMAP
020000
010000
008000
000000
FBEF80
208300
30C200
11C200
114400
196400
0B2800
0A2800
0E3800
061000
041000
ENDCHAR
STARTCHAR wgrave
ENCODING 7809
SWIDTH 778 0
DWIDTH 12 0
BBX 11 11 0 0
BITMAP
1000
0800
0400
0000
EEE0
4440
4440
2A80
2A80
1100
1100
ENDCHAR
STARTCHAR Wacute
ENCODING 7810
SWIDTH 981 0
DWIDTH 16 0
BBX 17 15 -1 0
BITMAP
002000
004000
008000
000000
FBEF80
208300
30C200
11C200
114400
196400
0B2800
0A2800
0E3800
061000
041000
ENDCHAR
STARTCHAR wacute
ENCODING 7811
SWIDTH 778 0
DWIDTH 12 0
BBX 11 11 0 0
BITMAP
0100
0200
0400
0000
EEE0
4440
4440
2A80
2A80
1100
1100
ENDCHAR
STARTCHAR Wdieresis
ENCODING 7812
SWIDTH 981 0
DWIDTH 16 0
BBX 17 14 -1 0
BITMAP
012000
012000
000000
FBEF80
208300
30C200
11C200
114400
196400
0B2800
0A2800
0E3800
061000
041000
ENDCHAR
STARTCHAR wdieresis
ENCODING 7813
SWIDTH 778 0
DWIDTH 12 0
BBX 11 10 0 0
BITMAP
0900
0900
0000
EEE0
4440
4440
2A80
2A80
1100
1100
ENDCHAR
STARTCHAR uni1E86
ENCODING 7814
SWIDTH 981 0
DWIDTH 16 0
BBX 17 14 -1 0
BITMAP
008000
008000
000000
FBEF80
208300
30C200
11C200
114400
196400
0B2800
0A2800
0E3800
061000
041000
ENDCHAR
STARTCHAR uni1E87
ENCODING 7815
SWIDTH 778 0
DWIDTH 12 0
BBX 11 10 0 0
BITMAP
0400
0400
0000
EEE0
4440
4440
2A80
2A80
1100
1100
ENDCHAR
STARTCHAR uni1E88
ENCODING 7816
SWIDTH 981 0
DWIDTH 16 0
BBX 17 14 -1 -3
BITMAP
FBEF80
208300
30C200
11C200
114400
196400
0B2800
0A2800
0E3800
061000
041000
000000
008000
008000
ENDCHAR
STARTCHAR uni1E89
ENCODING 7817
SWIDTH 778 0
DWIDTH 12 0
BBX 11 10 0 -3
BITMAP
EEE0
4440
4440
2A80
2A80
1100
1100
0000
0400
0400
ENDCHAR
STARTCHAR uni1E8A
ENCODING 7818
SWIDTH 704 0
DWIDTH 13 0
BBX 12 14 0 0
BITMAP
0400
0400
0000
FDF0
3040
1880
0D00
0500
0600
0B00
0900
1180
20C0
FBF0
ENDCHAR
STARTCHAR uni1E8B
ENCODING 7819
SWIDTH 537 0
DWIDTH 8 0
BBX 7 10 0 0
BITMAP
10
10
00
CE
64
38
10
38
4C
E6
ENDCHAR
STARTCHAR uni1E8C
ENCODING 7820
SWIDTH 704 0
DWIDTH 13 0
BBX 12 14 0 0
BITMAP
0900
0900
0000
FDF0
3040
1880
0D00
0500
0600
0B00
0900
1180
20C0
FBF0
ENDCHAR
STARTCHAR uni1E8D
ENCODING 7821
SWIDTH 537 0
DWIDTH 8 0
BBX 7 10 0 0
BITMAP
24
24
00
CE
64
38
10
38
4C
E6
ENDCHAR
STARTCHAR uni1E8E
ENCODING 7822
SWIDTH 704 0
DWIDTH 10 0
BBX 11 14 -1 0
BITMAP
0400
0400
0000
FBE0
6080
3100
1100
1A00
0A00
0400
0400
0400
0400
1F00
ENDCHAR
STARTCHAR uni1E8F
ENCODING 7823
SWIDTH 537 0
DWIDTH 8 0
BBX 7 13 0 -3
BITMAP
10
10
00
EE
44
44
28
28
10
10
20
A0
C0
ENDCHAR
STARTCHAR uni1E90
ENCODING 7824
SWIDTH 611 0
DWIDTH 9 0
BBX 8 15 0 0
BITMAP
08
14
22
00
FF
83
86
0C
08
18
30
20
61
C1
FF
ENDCHAR
STARTCHAR uni1E91
ENCODING 7825
SWIDTH 481 0
DWIDTH 7 0
BBX 6 11 0 0
BITMAP
10
28
44
00
FC
8C
98
30
64
C4
FC
ENDCHAR
STARTCHAR uni1E92
ENCODING 7826
SWIDTH 611 0
DWIDTH 9 0
BBX 8 14 0 -3
BITMAP
FF
83
86
0C
08
18
30
20
61
C1
FF
00
10
10
ENDCHAR
STARTCHAR uni1E93
ENCODING 7827
SWIDTH 481 0
DWIDTH 7 0
BBX 6 10 0 -3
BITMAP
FC
8C
98
30
64
C4
FC
00
20
20
ENDCHAR
STARTCHAR uni1E94
ENCODING 7828
SWIDTH 611 0
DWIDTH 9 0
BBX 8 13 0 -2
BITMAP
FF
83
86
0C
08
18
30
20
61
C1
FF
00
7C
ENDCHAR
STARTCHAR uni1E95
ENCODING 7829
SWIDTH 481 0
DWIDTH 7 0
BBX 6 9 0 -2
BITMAP
FC
8C
98
30
64
C4
FC
00
F8
ENDCHAR
STARTCHAR uni1E96
ENCODING 7830
SWIDTH 611 0
DWIDTH 9 0
BBX 8 13 0 -2
BITMAP
C0
40
40
40
5C
66
42
42
42
42
E7
00
3E
ENDCHAR
STARTCHAR uni1E97
ENCODING 7831
SWIDTH 389 0
DWIDTH 5 0
BBX 5 12 0 0
BITMAP
90
90
00
40
40
F0
40
40
40
40
48
30
ENDCHAR
STARTCHAR uni1E98
ENCODING 7832
SWIDTH 778 0
DWIDTH 12 0
BBX 11 11 0 0
BITMAP
0600
0900
0600
0000
EEE0
4440
4440
2A80
2A80
1100
1100
ENDCHAR
STARTCHAR uni1E99
ENCODING 7833
SWIDTH 537 0
DWIDTH 8 0
BBX 7 14 0 -3
BITMAP
18
24
18
00
EE
44
44
28
28
10
10
20
A0
C0
ENDCHAR
STARTCHAR uni1EA0
ENCODING 7840
SWIDTH 722 0
DWIDTH 10 0
BBX 11 14 -1 -3
BITMAP
0400
0400
0A00
0A00
0A00
1100
1100
3F80
2080
2080
FBE0
0000
0400
0400
ENDCHAR
STARTCHAR uni1EA1
ENCODING 7841
SWIDTH 556 0
DWIDTH 8 0
BBX 7 10 0 -3
BITMAP
38
4C
04
3C
C4
8C
76
00
10
10
ENDCHAR
STARTCHAR uni1EA4
ENCODING 7844
SWIDTH 722 0
DWIDTH 10 0
BBX 11 18 -1 0
BITMAP
0100
0200
0400
0000
0400
0A00
1100
0400
0400
0A00
0A00
0A00
1100
1100
3F80
2080
2080
FBE0
ENDCHAR
STARTCHAR uni1EA5
ENCODING 7845
SWIDTH 556 0
DWIDTH 8 0
BBX 7 15 0 0
BITMAP
04
08
10
00
10
28
44
00
38
4C
04
3C
C4
8C
76
ENDCHAR
STARTCHAR uni1EA6
ENCODING 7846
SWIDTH 722 0
DWIDTH 10 0
BBX 11 18 -1 0
BITMAP
1000
0800
0400
0000
0400
0A00
1100
0400
0400
0A00
0A00
0A00
1100
1100
3F80
2080
2080
FBE0
ENDCHAR
STARTCHAR uni1EA7
ENCODING 7847
SWIDTH 556 0
DWIDTH 8 0
BBX 7 15 0 0
BITMAP
40
20
10
00
10
28
44
00
38
4C
04
3C
C4
8C
76
ENDCHAR
STARTCHAR uni1EAA
ENCODING 7850
SWIDTH 722 0
DWIDTH 10 0
BBX 11 17 -1 0
BITMAP
0C80
1300
0000
0400
0A00
1100
0400
0400
0A00
0A00
0A00
1100
1100
3F80
2080
2080
FBE0
ENDCHAR
STARTCHAR uni1EAB
ENCODING 7851
SWIDTH 556 0
DWIDTH 8 0
BBX 7 14 0 0
BITMAP
32
4C
00
10
28
44
00
38
4C
04
3C
C4
8C
76
ENDCHAR
STARTCHAR uni1EAC
ENCODING 7852
SWIDTH 722 0
DWIDTH 10 0
BBX 11 18 -1 -3
BITMAP
0400
0A00
1100
0000
0400
0400
0A00
0A00
0A00
1100
1100
3F80
2080
2080
FBE0
0000
0400
0400
ENDCHAR
STARTCHAR uni1EAD
ENCODING 7853
SWIDTH 556 0
DWIDTH 8 0
BBX 7 14 0 -3
BITMAP
10
28
44
00
38
4C
04
3C
C4
8C
76
00
10
10
ENDCHAR
STARTCHAR uni1EAE
ENCODING 7854
SWIDTH 722 0
DWIDTH 10 0
BBX 11 18 -1 0
BITMAP
0100
0200
0400
0000
0900
0600
0000
0400
0400
0A00
0A00
0A00
1100
1100
3F80
2080
2080
FBE0
ENDCHAR
STARTCHAR uni1EAF
ENCODING 7855
SWIDTH 556 0
DWIDTH 8 0
BBX 7 14 0 0
BITMAP
04
08
10
00
24
18
00
38
4C
04
3C
C4
8C
76
ENDCHAR
STARTCHAR uni1EB0
ENCODING 7856
SWIDTH 722 0
DWIDTH 10 0
BBX 11 18 -1 0
BITMAP
0800
0400
0200
0000
0900
0600
0000
0400
0400
0A00
0A00
0A00
1100
1100
3F80
2080
2080
FBE0
ENDCHAR
STARTCHAR uni1EB1
ENCODING 7857
SWIDTH 556 0
DWIDTH 8 0
BBX 7 14 0 0
BITMAP
20
10
08
00
24
18
00
38
4C
04
3C
C4
8C
76
ENDCHAR
STARTCHAR uni1EB4
ENCODING 7860
SWIDTH 722 0
DWIDTH 10 0
BBX 11 17 -1 0
BITMAP
0C80
1300
0000
0900
0600
0000
0400
0400
0A00
0A00
0A00
1100
1100
3F80
2080
2080
FBE0
ENDCHAR
STARTCHAR uni1EB5
ENCODING 7861
SWIDTH 556 0
DWIDTH 8 0
BBX 7 13 0 0
BITMAP
32
4C
00
24
18
00
38
4C
04
3C
C4
8C
76
ENDCHAR
STARTCHAR uni1EB6
ENCODING 7862
SWIDTH 722 0
DWIDTH 10 0
BBX 11 17 -1 -3
BITMAP
0900
0600
0000
0400
0400
0A00
0A00
0A00
1100
1100
3F80
2080
2080
FBE0
0000
0400
0400
ENDCHAR
STARTCHAR uni1EB7
ENCODING 7863
SWIDTH 556 0
DWIDTH 8 0
BBX 7 13 0 -3
BITMAP
24
18
00
38
4C
04
3C
C4
8C
76
00
10
10
ENDCHAR
STARTCHAR uni1EB8
ENCODING 7864
SWIDTH 722 0
DWIDTH 10 0
BBX 9 14 0 -3
BITMAP
FF80
2080
2080
2400
2400
3C00
2400
2400
2080
2080
FF80
0000
0800
0800
ENDCHAR
STARTCHAR uni1EB9
ENCODING 7865
SWIDTH 500 0
DWIDTH 7 0
BBX 6 10 0 -3
BITMAP
78
CC
84
FC
80
C4
78
00
20
20
ENDCHAR
STARTCHAR uni1EBC
ENCODING 7868
SWIDTH 722 0
DWIDTH 10 0
BBX 9 14 0 0
BITMAP
1900
2600
0000
FF80
2080
2080
2400
2400
3C00
2400
2400
2080
2080
FF80
ENDCHAR
STARTCHAR uni1EBD
ENCODING 7869
SWIDTH 500 0
DWIDTH 7 0
BBX 6 10 0 0
BITMAP
64
98
00
78
CC
84
FC
80
C4
78
ENDCHAR
STARTCHAR uni1EBE
ENCODING 7870
SWIDTH 722 0
DWIDTH 10 0
BBX 9 18 0 0
BITMAP
0200
0400
0800
0000
0C00
1200
0000
FF80
2080
2080
2400
2400
3C00
2400
2400
2080
2080
FF80
ENDCHAR
STARTCHAR uni1EBF
ENCODING 7871
SWIDTH 500 0
DWIDTH 7 0
BBX 6 15 0 0
BITMAP
04
08
10
00
10
28
44
00
78
CC
84
FC
80
C4
78
ENDCHAR
STARTCHAR uni1EC0
ENCODING 7872
SWIDTH 722 0
DWIDTH 10 0
BBX 9 18 0 0
BITMAP
2000
1000
0800
0000
0C00
1200
0000
FF80
2080
2080
2400
2400
3C00
2400
2400
2080
2080
FF80
ENDCHAR
STARTCHAR uni1EC1
ENCODING 7873
SWIDTH 500 0
DWIDTH 7 0
BBX 6 15 0 0
BITMAP
40
20
10
00
10
28
44
00
78
CC
84
FC
80
C4
78
ENDCHAR
STARTCHAR uni1EC4
ENCODING 7876
SWIDTH 722 0
DWIDTH 10 0
BBX 9 17 0 0
BITMAP
1900
2600
0000
0C00
1200
0000
FF80
2080
2080
2400
2400
3C00
2400
2400
2080
2080
FF80
ENDCHAR
STARTCHAR uni1EC5
ENCODING 7877
SWIDTH 500 0
DWIDTH 7 0
BBX 6 14 0 0
BITMAP
64
98
00
10
28
44
00
78
CC
84
FC
80
C4
78
ENDCHAR
STARTCHAR uni1EC6
ENCODING 7878
SWIDTH 722 0
DWIDTH 10 0
BBX 9 18 0 -3
BITMAP
0800
1400
2200
0000
FF80
2080
2080
2400
2400
3C00
2400
2400
2080
2080
FF80
0000
0800
0800
ENDCHAR
STARTCHAR uni1EC7
ENCODING 7879
SWIDTH 500 0
DWIDTH 7 0
BBX 6 14 0 -3
BITMAP
10
28
44
00
78
CC
84
FC
80
C4
78
00
20
20
ENDCHAR
STARTCHAR uni1ECA
ENCODING 7882
SWIDTH 407 0
DWIDTH 6 0
BBX 5 14 0 -3
BITMAP
F8
20
20
20
20
20
20
20
20
20
F8
00
20
20
ENDCHAR
STARTCHAR uni1ECB
ENCODING 7883
SWIDTH 315 0
DWIDTH 4 0
BBX 3 13 0 -3
BITMAP
40
40
00
C0
40
40
40
40
40
E0
00
40
40
ENDCHAR
STARTCHAR uni1ECC
ENCODING 7884
SWIDTH 778 0
DWIDTH 11 0
BBX 10 14 0 -3
BITMAP
1E00
6180
4080
C0C0
8040
8040
8040
C0C0
4080
6180
1E00
0000
0400
0400
ENDCHAR
STARTCHAR uni1ECD
ENCODING 7885
SWIDTH 500 0
DWIDTH 7 0
BBX 6 10 0 -3
BITMAP
78
CC
84
84
84
CC
78
00
10
10
ENDCHAR
STARTCHAR uni1ED0
ENCODING 7888
SWIDTH 778 0
DWIDTH 11 0
BBX 10 18 0 0
BITMAP
0200
0400
0800
0000
0C00
1200
0000
1E00
6180
4080
C0C0
8040
8040
8040
C0C0
4080
6180
1E00
ENDCHAR
STARTCHAR uni1ED1
ENCODING 7889
SWIDTH 500 0
DWIDTH 7 0
BBX 6 15 0 0
BITMAP
08
10
20
00
20
50
88
00
78
CC
84
84
84
CC
78
ENDCHAR
STARTCHAR uni1ED2
ENCODING 7890
SWIDTH 778 0
DWIDTH 11 0
BBX 10 18 0 0
BITMAP
1000
0800
0400
0000
0C00
1200
0000
1E00
6180
4080
C0C0
8040
8040
8040
C0C0
4080
6180
1E00
ENDCHAR
STARTCHAR uni1ED3
ENCODING 7891
SWIDTH 500 0
DWIDTH 7 0
BBX 6 15 0 0
BITMAP
40
20
10
00
20
50
88
00
78
CC
84
84
84
CC
78
ENDCHAR
STARTCHAR uni1ED6
ENCODING 7894
SWIDTH 778 0
DWIDTH 11 0
BBX 10 17 0 0
BITMAP
1900
2600
0000
0C00
1200
0000
1E00
6180
4080
C0C0
8040
8040
8040
C0C0
4080
6180
1E00
ENDCHAR
STARTCHAR uni1ED7
ENCODING 7895
SWIDTH 500 0
DWIDTH 7 0
BBX 6 14 0 0
BITMAP
64
98
00
20
50
88
00
78
CC
84
84
84
CC
78
ENDCHAR
STARTCHAR uni1ED8
ENCODING 7896
SWIDTH 778 0
DWIDTH 11 0
BBX 10 18 0 -3
BITMAP
0400
0A00
1100
0000
1E00
6180
4080
C0C0
8040
8040
8040
C0C0
4080
6180
1E00
0000
0400
0400
ENDCHAR
STARTCHAR uni1ED9
ENCODING 7897
SWIDTH 500 0
DWIDTH 7 0
BBX 6 14 0 -3
BITMAP
10
28
44
00
78
CC
84
84
84
CC
78
00
10
10
ENDCHAR
STARTCHAR uni1EDA
ENCODING 7898
SWIDTH 778 0
DWIDTH 11 0
BBX 11 15 0 0
BITMAP
0100
0200
0400
0000
1E60
61A0
40A0
C0C0
8040
8040
8040
C0C0
4080
6180
1E00
ENDCHAR
STARTCHAR uni1EDB
ENCODING 7899
SWIDTH 500 0
DWIDTH 7 0
BBX 8 11 0 0
BITMAP
04
08
10
00
7B
CD
85
86
84
CC
78
ENDCHAR
STARTCHAR uni1EDC
ENCODING 7900
SWIDTH 778 0
DWIDTH 11 0
BBX 11 15 0 0
BITMAP
0800
0400
0200
0000
1E60
61A0
40A0
C0C0
8040
8040
8040
C0C0
4080
6180
1E00
ENDCHAR
STARTCHAR uni1EDD
ENCODING 7901
SWIDTH 500 0
DWIDTH 7 0
BBX 8 11 0 0
BITMAP
20
10
08
00
7B
CD
85
86
84
CC
78
ENDCHAR
STARTCHAR uni1EE0
ENCODING 7904
SWIDTH 778 0
DWIDTH 11 0
BBX 11 14 0 0
BITMAP
0C80
1300
0000
1E60
61A0
40A0
C0C0
8040
8040
8040
C0C0
4080
6180
1E00
ENDCHAR
STARTCHAR uni1EE1
ENCODING 7905
SWIDTH 500 0
DWIDTH 7 0
BBX 8 10 0 0
BITMAP
32
4C
00
7B
CD
85
86
84
CC
78
ENDCHAR
STARTCHAR uni1EE2
ENCODING 7906
SWIDTH 778 0
DWIDTH 11 0
BBX 11 14 0 -3
BITMAP
1E60
61A0
40A0
C0C0
8040
8040
8040
C0C0
4080
6180
1E00
0000
0400
0400
ENDCHAR
STARTCHAR uni1EE3
ENCODING 7907
SWIDTH 500 0
DWIDTH 7 0
BBX 8 10 0 -3
BITMAP
7B
CD
85
86
84
CC
78
00
10
10
ENDCHAR
STARTCHAR uni1EE4
ENCODING 7908
SWIDTH 815 0
DWIDTH 13 0
BBX 12 14 0 -3
BITMAP
F9F0
2040
2040
2040
2040
2040
2040
2040
2040
3080
1F00
0000
0400
0400
ENDCHAR
STARTCHAR uni1EE5
ENCODING 7909
SWIDTH 611 0
DWIDTH 9 0
BBX 8 10 0 -3
BITMAP
E7
42
42
42
42
66
3B
00
08
08
ENDCHAR
STARTCHAR uni1EE8
ENCODING 7912
SWIDTH 815 0
DWIDTH 13 0
BBX 13 15 0 0
BITMAP
0080
0100
0200
0000
F9F8
2048
2048
2050
2040
2040
2040
2040
2040
3080
1F00
ENDCHAR
STARTCHAR uni1EE9
ENCODING 7913
SWIDTH 611 0
DWIDTH 9 0
BBX 10 11 0 0
BITMAP
0200
0400
0800
0000
E7C0
4240
4240
4280
4200
6600
3B00
ENDCHAR
STARTCHAR uni1EEA
ENCODING 7914
SWIDTH 815 0
DWIDTH 13 0
BBX 13 15 0 0
BITMAP
0400
0200
0100
0000
F9F8
2048
2048
2050
2040
2040
2040
2040
2040
3080
1F00
ENDCHAR
STARTCHAR uni1EEB
ENCODING 7915
SWIDTH 611 0
DWIDTH 9 0
BBX 10 11 0 0
BITMAP
1000
0800
0400
0000
E7C0
4240
4240
4280
4200
6600
3B00
ENDCHAR
STARTCHAR uni1EEE
ENCODING 7918
SWIDTH 815 0
DWIDTH 13 0
BBX 13 14 0 0
BITMAP
0640
0980
0000
F9F8
2048
2048
2050
2040
2040
2040
2040
2040
3080
1F00
ENDCHAR
STARTCHAR uni1EEF
ENCODING 7919
SWIDTH 611 0
DWIDTH 9 0
BBX 10 10 0 0
BITMAP
1900
2600
0000
E7C0
4240
4240
4280
4200
6600
3B00
ENDCHAR
STARTCHAR uni1EF0
ENCODING 7920
SWIDTH 815 0
DWIDTH 13 0
BBX 13 14 0 -3
BITMAP
F9F8
2048
2048
2050
2040
2040
2040
2040
2040
3080
1F00
0000
0400
0400
ENDCHAR
STARTCHAR uni1EF1
ENCODING 7921
SWIDTH 611 0
DWIDTH 9 0
BBX 10 10 0 -3
BITMAP
E7C0
4240
4240
4280
4200
6600
3B00
0000
0800
0800
ENDCHAR
STARTCHAR Ygrave
ENCODING 7922
SWIDTH 704 0
DWIDTH 10 0
BBX 11 15 -1 0
BITMAP
1000
0800
0400
0000
FBE0
6080
3100
1100
1A00
0A00
0400
0400
0400
0400
1F00
ENDCHAR
STARTCHAR ygrave
ENCODING 7923
SWIDTH 537 0
DWIDTH 8 0
BBX 7 14 0 -3
BITMAP
40
20
10
00
EE
44
44
28
28
10
10
20
A0
C0
ENDCHAR
STARTCHAR uni1EF4
ENCODING 7924
SWIDTH 704 0
DWIDTH 10 0
BBX 11 14 -1 -3
BITMAP
FBE0
6080
3100
1100
1A00
0A00
0400
0400
0400
0400
1F00
0000
0400
0400
ENDCHAR
STARTCHAR uni1EF5
ENCODING 7925
SWIDTH 537 0
DWIDTH 8 0
BBX 7 13 0 -6
BITMAP
EE
44
44
28
28
10
10
20
A0
C0
00
20
20
ENDCHAR
STARTCHAR uni1EF8
ENCODING 7928
SWIDTH 704 0
DWIDTH 10 0
BBX 11 14 -1 0
BITMAP
1900
2600
0000
FBE0
6080
3100
1100
1A00
0A00
0400
0400
0400
0400
1F00
ENDCHAR
STARTCHAR uni1EF9
ENCODING 7929
SWIDTH 537 0
DWIDTH 8 0
BBX 7 13 0 -3
BITMAP
32
4C
00
EE
44
44
28
28
10
10
20
A0
C0
ENDCHAR
STARTCHAR uni2000
ENCODING 8192
SWIDTH 500 0
DWIDTH 7 0
BBX 1 1 0 0
BITMAP
00
ENDCHAR
STARTCHAR uni2001
ENCODING 8193
SWIDTH 1000 0
DWIDTH 14 0
BBX 1 1 0 0
BITMAP
00
ENDCHAR
STARTCHAR uni2002
ENCODING 8194
SWIDTH 500 0
DWIDTH 7 0
BBX 1 1 0 0
BITMAP
00
ENDCHAR
STARTCHAR uni2003
ENCODING 8195
SWIDTH 1000 0
DWIDTH 14 0
BBX 1 1 0 0
BITMAP
00
ENDCHAR
STARTCHAR uni2004
ENCODING 8196
SWIDTH 333 0
DWIDTH 5 0
BBX 1 1 0 0
BITMAP
00
ENDCHAR
STARTCHAR uni2005
ENCODING 8197
SWIDTH 250 0
DWIDTH 3 0
BBX 1 1 0 0
BITMAP
00
ENDCHAR
STARTCHAR uni2006
ENCODING 8198
SWIDTH 167 0
DWIDTH 2 0
BBX 1 1 0 0
BITMAP
00
ENDCHAR
STARTCHAR uni2007
ENCODING 8199
SWIDTH 556 0
DWIDTH 8 0
BBX 1 1 0 0
BITMAP
00
ENDCHAR
STARTCHAR uni2008
ENCODING 8200
SWIDTH 278 0
DWIDTH 4 0
BBX 1 1 0 0
BITMAP
00
ENDCHAR
STARTCHAR uni2009
ENCODING 8201
SWIDTH 200 0
DWIDTH 3 0
BBX 1 1 0 0
BITMAP
00
ENDCHAR
STARTCHAR uni200A
ENCODING 8202
SWIDTH 100 0
DWIDTH 1 0
BBX 1 1 0 0
BITMAP
00
ENDCHAR
STARTCHAR uni200B
ENCODING 8203
SWIDTH 0 0
DWIDTH 0 0
BBX 1 1 0 0
BITMAP
00
ENDCHAR
STARTCHAR uni2010
ENCODING 8208
SWIDTH 333 0
DWIDTH 5 0
BBX 4 1 0 3
BITMAP
F0
ENDCHAR
STARTCHAR uni2011
ENCODING 8209
SWIDTH 333 0
DWIDTH 5 0
BBX 4 1 0 3
BITMAP
F0
ENDCHAR
STARTCHAR figuredash
ENCODING 8210
SWIDTH 556 0
DWIDTH 7 0
BBX 7 1 0 3
BITMAP
FE
ENDCHAR
STARTCHAR endash
ENCODING 8211
SWIDTH 556 0
DWIDTH 7 0
BBX 7 1 0 3
BITMAP
FE
ENDCHAR
STARTCHAR emdash
ENCODING 8212
SWIDTH 1000 0
DWIDTH 14 0
BBX 14 1 0 3
BITMAP
FFFC
ENDCHAR
STARTCHAR afii00208
ENCODING 8213
SWIDTH 1000 0
DWIDTH 14 0
BBX 14 1 0 3
BITMAP
FFFC
ENDCHAR
STARTCHAR quoteleft
ENCODING 8216
SWIDTH 204 0
DWIDTH 4 0
BBX 2 4 1 7
BITMAP
40
80
80
C0
ENDCHAR
STARTCHAR quoteright
ENCODING 8217
SWIDTH 204 0
DWIDTH 4 0
BBX 2 4 1 7
BITMAP
C0
40
40
80
ENDCHAR
STARTCHAR quotesinglbase
ENCODING 8218
SWIDTH 204 0
DWIDTH 3 0
BBX 2 4 0 -2
BITMAP
C0
40
40
80
ENDCHAR
STARTCHAR quotereversed
ENCODING 8219
SWIDTH 204 0
DWIDTH 4 0
BBX 2 4 1 7
BITMAP
C0
80
80
40
ENDCHAR
STARTCHAR quotedblleft
ENCODING 8220
SWIDTH 389 0
DWIDTH 7 0
BBX 5 4 1 7
BITMAP
48
90
90
D8
ENDCHAR
STARTCHAR quotedblright
ENCODING 8221
SWIDTH 389 0
DWIDTH 7 0
BBX 5 4 1 7
BITMAP
D8
48
48
90
ENDCHAR
STARTCHAR quotedblbase
ENCODING 8222
SWIDTH 389 0
DWIDTH 6 0
BBX 5 4 0 -2
BITMAP
D8
48
48
90
ENDCHAR
STARTCHAR uni201F
ENCODING 8223
SWIDTH 389 0
DWIDTH 7 0
BBX 5 4 1 7
BITMAP
D8
90
90
48
ENDCHAR
STARTCHAR dagger
ENCODING 8224
SWIDTH 500 0
DWIDTH 7 0
BBX 5 13 1 -2
BITMAP
20
20
20
F8
20
20
20
20
20
20
20
20
20
ENDCHAR
STARTCHAR daggerdbl
ENCODING 8225
SWIDTH 500 0
DWIDTH 7 0
BBX 5 14 1 -3
BITMAP
20
20
20
F8
20
20
20
20
20
F8
20
20
20
20
ENDCHAR
STARTCHAR bullet
ENCODING 8226
SWIDTH 606 0
DWIDTH 7 0
BBX 5 5 1 3
BITMAP
70
F8
F8
F8
70
ENDCHAR
STARTCHAR ellipsis
ENCODING 8230
SWIDTH 1000 0
DWIDTH 12 0
BBX 9 2 1 0
BITMAP
8880
8880
ENDCHAR
STARTCHAR perthousand
ENCODING 8240
SWIDTH 1000 0
DWIDTH 15 0
BBX 14 11 0 0
BITMAP
3600
5A00
9400
A400
4800
0800
118C
1294
24A4
2528
4210
ENDCHAR
STARTCHAR guilsinglleft
ENCODING 8249
SWIDTH 259 0
DWIDTH 4 0
BBX 3 5 0 1
BITMAP
20
40
80
40
20
ENDCHAR
STARTCHAR guilsinglright
ENCODING 8250
SWIDTH 259 0
DWIDTH 4 0
BBX 3 5 0 1
BITMAP
80
40
20
40
80
ENDCHAR
STARTCHAR fraction
ENCODING 8260
SWIDTH 167 0
DWIDTH 4 0
BBX 6 12 -1 -1
BITMAP
04
04
08
08
10
10
20
20
40
40
80
80
ENDCHAR
STARTCHAR oneinferior
ENCODING 8321
SWIDTH 333 0
DWIDTH 5 0
BBX 3 6 1 -3
BITMAP
40
C0
40
40
40
E0
ENDCHAR
STARTCHAR twoinferior
ENCODING 8322
SWIDTH 333 0
DWIDTH 5 0
BBX 4 6 0 -3
BITMAP
60
90
20
40
90
F0
ENDCHAR
STARTCHAR threeinferior
ENCODING 8323
SWIDTH 333 0
DWIDTH 5 0
BBX 4 6 0 -3
BITMAP
60
90
20
10
90
60
ENDCHAR
STARTCHAR uni20A5
ENCODING 8357
SWIDTH 889 0
DWIDTH 14 0
BBX 13 11 0 -2
BITMAP
0080
0080
DCE0
6730
4310
4310
4210
4210
E738
0400
0400
ENDCHAR
STARTCHAR uni20A6
ENCODING 8358
SWIDTH 815 0
DWIDTH 13 0
BBX 12 11 0 0
BITMAP
E1F0
3040
3840
3FC0
2C40
2640
3FC0
2140
21C0
20C0
F840
ENDCHAR
STARTCHAR uni20A9
ENCODING 8361
SWIDTH 981 0
DWIDTH 16 0
BBX 17 11 -1 0
BITMAP
FBEF80
208300
30C200
17F200
114400
196400
0FF800
0A2800
0E3800
061000
041000
ENDCHAR
STARTCHAR Euro
ENCODING 8364
SWIDTH 722 0
DWIDTH 11 0
BBX 10 11 0 0
BITMAP
0F40
30C0
2040
FE40
4000
4000
FE00
6040
2040
3080
0F00
ENDCHAR
STARTCHAR uni20AD
ENCODING 8365
SWIDTH 778 0
DWIDTH 11 0
BBX 11 11 0 0
BITMAP
FBC0
2100
2200
2400
2800
FFE0
3400
2600
2300
2180
FBE0
ENDCHAR
STARTCHAR uni2103
ENCODING 8451
SWIDTH 1102 0
DWIDTH 17 0
BBX 15 11 1 0
BITMAP
607A
9186
9102
6302
0200
0200
0200
0302
0102
0184
0078
ENDCHAR
STARTCHAR uni2109
ENCODING 8457
SWIDTH 1047 0
DWIDTH 16 0
BBX 14 11 1 0
BITMAP
67FC
9104
9104
6120
0120
01E0
0120
0120
0100
0100
07C0
ENDCHAR
STARTCHAR trademark
ENCODING 8482
SWIDTH 1000 0
DWIDTH 16 0
BBX 15 6 0 5
BITMAP
FB8E
A98C
2154
2154
2124
73AE
ENDCHAR
STARTCHAR uni212A
ENCODING 8490
SWIDTH 778 0
DWIDTH 11 0
BBX 11 11 0 0
BITMAP
FBC0
2100
2200
2400
2800
3800
3400
2600
2300
2180
FBE0
ENDCHAR
STARTCHAR uni212B
ENCODING 8491
SWIDTH 722 0
DWIDTH 10 0
BBX 11 14 -1 0
BITMAP
0C00
1200
0C00
0400
0400
0A00
0A00
0A00
1100
1100
3F80
2080
2080
FBE0
ENDCHAR
STARTCHAR uni2132
ENCODING 8498
SWIDTH 667 0
DWIDTH 10 0
BBX 9 11 0 0
BITMAP
0F80
0200
0200
1200
1200
1E00
1200
1200
8200
8200
FF80
ENDCHAR
STARTCHAR universal
ENCODING 8704
SWIDTH 722 0
DWIDTH 10 0
BBX 11 11 -1 0
BITMAP
FBE0
2080
2080
3F80
1100
1100
0A00
0A00
0A00
0400
0400
ENDCHAR
STARTCHAR existential
ENCODING 8707
SWIDTH 722 0
DWIDTH 10 0
BBX 9 11 0 0
BITMAP
FF80
8200
8200
1200
1200
1E00
1200
1200
8200
8200
FF80
ENDCHAR
STARTCHAR uni2204
ENCODING 8708
SWIDTH 722 0
DWIDTH 10 0
BBX 9 11 0 0
BITMAP
FF80
8200
8200
1600
1600
1E00
1A00
1A00
8A00
9200
FF80
ENDCHAR
STARTCHAR minus
ENCODING 8722
SWIDTH 606 0
DWIDTH 9 0
BBX 7 1 1 3
BITMAP
FE
ENDCHAR
STARTCHAR fraction
ENCODING 8725
SWIDTH 167 0
DWIDTH 4 0
BBX 6 12 -1 -1
BITMAP
04
04
08
08
10
10
20
20
40
40
80
80
ENDCHAR
STARTCHAR periodcentered
ENCODING 8729
SWIDTH 278 0
DWIDTH 4 0
BBX 2 2 1 3
BITMAP
C0
C0
ENDCHAR
STARTCHAR uni2236
ENCODING 8758
SWIDTH 278 0
DWIDTH 4 0
BBX 1 7 1 0
BITMAP
80
80
00
00
00
80
80
ENDCHAR
STARTCHAR uni2259
ENCODING 8793
SWIDTH 606 0
DWIDTH 9 0
BBX 7 8 1 2
BITMAP
10
28
44
00
FE
00
00
FE
ENDCHAR
STARTCHAR uni225A
ENCODING 8794
SWIDTH 606 0
DWIDTH 9 0
BBX 7 8 1 2
BITMAP
44
28
10
00
FE
00
00
FE
ENDCHAR
STARTCHAR notequal
ENCODING 8800
SWIDTH 606 0
DWIDTH 9 0
BBX 7 11 1 -1
BITMAP
04
04
04
08
FE
08
10
FE
10
20
20
ENDCHAR
STARTCHAR equivalence
ENCODING 8801
SWIDTH 606 0
DWIDTH 9 0
BBX 7 5 0 1
BITMAP
FE
00
FE
00
FE
ENDCHAR
STARTCHAR uni2262
ENCODING 8802
SWIDTH 606 0
DWIDTH 9 0
BBX 7 11 0 -2
BITMAP
04
04
04
FE
08
FE
10
FE
10
20
20
ENDCHAR
STARTCHAR lessequal
ENCODING 8804
SWIDTH 606 0
DWIDTH 10 0
BBX 8 9 1 -2
BITMAP
03
0C
30
C0
30
0C
03
00
FF
ENDCHAR
STARTCHAR greaterequal
ENCODING 8805
SWIDTH 606 0
DWIDTH 10 0
BBX 8 9 1 -2
BITMAP
C0
30
0C
03
0C
30
C0
00
FF
ENDCHAR
STARTCHAR uni226E
ENCODING 8814
SWIDTH 606 0
DWIDTH 10 0
BBX 8 11 1 -2
BITMAP
04
04
07
0C
38
C8
30
1C
13
20
20
ENDCHAR
STARTCHAR uni226F
ENCODING 8815
SWIDTH 606 0
DWIDTH 10 0
BBX 8 11 1 -2
BITMAP
04
04
C4
38
0C
0B
1C
30
D0
20
20
ENDCHAR
STARTCHAR uni2270
ENCODING 8816
SWIDTH 606 0
DWIDTH 10 0
BBX 8 11 1 -3
BITMAP
04
07
0C
38
C8
38
1C
13
10
FF
20
ENDCHAR
STARTCHAR uni2271
ENCODING 8817
SWIDTH 606 0
DWIDTH 10 0
BBX 8 11 1 -3
BITMAP
04
C4
34
0C
0B
0C
30
D0
10
FF
20
ENDCHAR
STARTCHAR fi
ENCODING -1
SWIDTH 611 0
DWIDTH 8 0
BBX 7 11 0 0
BITMAP
18
6C
44
40
FC
44
44
44
44
44
EE
ENDCHAR
STARTCHAR fl
ENCODING -1
SWIDTH 611 0
DWIDTH 8 0
BBX 7 11 0 0
BITMAP
1C
6C
44
44
F4
44
44
44
44
44
EE
ENDCHAR
ENDFONT
